<?xml version="1.0" standalone="no"?> 
<!DOCTYPE svg PUBLIC "-//W3C//DTD SVG 1.1//EN" "http://www.w3.org/Graphics/SVG/1.1/DTD/svg11.dtd" >
<svg xmlns="http://www.w3.org/2000/svg">
<defs>
  <font id="zombatsregular" horiz-adv-x="1024">
    <font-face font-family="zombatsregular"
      units-per-em="512" ascent="448"
      descent="64" />
    <missing-glyph horiz-adv-x="0" />
    <glyph glyph-name="back-material"
      unicode="&#xF0D8;"
      horiz-adv-x="512" d=" M512 256H123L301 435L256 480L0 224L256 -32L301 13L123 192H512z" />
    <glyph glyph-name="cross-in-circle-fill"
      unicode="&#xF0D9;"
      horiz-adv-x="512" d=" M256 480C115 480 0 365 0 224S115 -32 256 -32S512 83 512 224S397 480 256 480zM362 118C359 115 355 114 350 114C346 114 342 115 339 118L256 201L173 118C170 115 166 114 162 114C157 114 153 115 150 118C144 125 144 135 150 141L233 224L159 298C153 305 153 315 159 321S175 327 182 321L256 247L330 321C337 327 347 327 353 321S359 305 353 298L279 224L362 141C368 134 368 124 362 118z" />
    <glyph glyph-name="icon-about-rocket"
      unicode="&#x6D;"
      horiz-adv-x="458" d=" M226 -64C205 -64 184 -60 165 -51C154 -46 147 -35 147 -24V-5C122 -11 79 -33 47 -53C37 -59 25 -59 16 -53C6 -48 0 -37 1 -25C8 76 67 145 92 169C101 319 203 436 205 438C210 444 217 447 225 448H228C236 448 244 444 249 438C253 434 350 324 361 175C380 157 449 86 458 -25C458 -38 452 -48 444 -53C435 -58 423 -58 413 -53C382 -34 332 -7 307 -3V-24C307 -35 301 -45 291 -50C284 -54 259 -64 226 -64zM179 -23C194 -29 209 -32 226 -32C253 -32 272 -24 276 -23V19L285 24C288 25 291 26 294 28L318 27C356 19 412 -14 427 -24C419 61 370 121 348 144L331 165C323 298 240 400 227 415C214 399 129 291 123 162V155L118 151C100 134 41 71 33 -25C50 -14 117 26 155 28H160L164 26C165 25 166 25 167 25C168 24 170 23 171 22L179 17V-23zM227 99C191 99 162 129 162 164C162 200 191 229 227 229S292 200 292 164C292 129 263 99 227 99zM227 197C209 197 194 183 194 164C194 146 208 131 227 131C245 131 260 146 260 164C260 183 245 197 227 197z" />
    <glyph glyph-name="icon-add-circle"
      unicode="&#xE021;"
      horiz-adv-x="512" d=" M273 209V321C273 330 265 338 256 338C246 338 239 330 239 321V209H127C118 209 110 202 110 192C110 183 118 175 127 175H239V64C239 54 246 47 256 47C260 47 265 48 268 52C271 55 273 59 273 64V175H384C389 175 393 177 396 180C399 184 401 188 401 192C401 202 394 209 384 209H273zM97 351C139 394 196 417 256 417C380 417 480 316 480 192C480 132 457 76 414 33C372 -10 316 -32 256 -32S139 -9 97 34C54 76 31 132 31 193C31 252 54 309 97 351zM75 373C29 327 0 263 0 192C0 51 115 -64 256 -64C326 -64 391 -35 437 11S512 122 512 192C512 333 397 448 256 448C185 448 121 419 75 373z" />
    <glyph glyph-name="icon-add-filter"
      unicode="&#x2B;"
      horiz-adv-x="512" d=" M497 448H15C7 448 0 441 0 433V-49C0 -57 7 -64 15 -64H497C505 -64 512 -57 512 -49V433C512 441 505 448 497 448zM481 -33H31V417H481V-33zM93 177H241V29C241 20 248 13 256 13S271 20 271 29V177H419C428 177 435 184 435 192S428 207 419 207H271V355C271 364 264 370 256 370S241 364 241 355V207H93C84 207 78 200 78 192S84 177 93 177z" />
    <glyph glyph-name="icon-add-meeting"
      unicode="&#xE053;"
      horiz-adv-x="512" d=" M160 448H96V384H160V448zM416 448H352V384H416V448zM480 416H448V384C448 366 434 352 416 352H352C334 352 320 366 320 384V416H192V384C192 366 178 352 160 352H96C78 352 64 366 64 384V416H32C14 416 0 402 0 384V-32C0 -50 14 -64 32 -64H480C498 -64 512 -50 512 -32V384C512 402 498 416 480 416zM160 32H96V96H160V32zM160 160H96V224H160V160zM288 32H224V96H288V32zM288 160H224V224H288V160zM416 32H352V96H416V32zM416 160H352V224H416V160z" />
    <glyph glyph-name="icon-add-photo-1"
      unicode="&#xE051;"
      horiz-adv-x="511" d=" M305 -16C311 -17 311 -25 306 -26L92 -63C73 -66 56 -54 53 -35L1 270C-3 291 11 311 32 315L90 325C103 327 114 318 114 305V63C114 22 145 -11 185 -12L305 -16zM415 205C394 205 378 222 378 243C378 263 394 280 415 280C435 280 452 263 452 243C452 222 435 205 415 205zM418 88H347H350H212C204 88 200 98 206 104L261 179C265 183 270 183 274 179L290 161C294 158 299 158 303 161L336 199C339 202 345 202 348 199L396 139C397 138 414 117 425 102C429 96 425 88 418 88zM470 364H185C162 364 144 345 144 322V30C144 7 162 -12 185 -12H470C493 -12 511 7 511 30V322C511 345 493 364 470 364z" />
    <glyph glyph-name="icon-add-to-collection-filled-1"
      unicode="&#xE04F;"
      horiz-adv-x="503" d=" M398 22H278C221 22 174 69 174 127V260C174 318 221 365 278 365H398C456 365 503 318 503 260V127C503 69 456 22 398 22zM425 212H355V282H320V212H248V177H320V105H355V177H425V212zM244 -11C250 -11 256 -12 263 -11C261 -15 251 -21 234 -31L146 -62C139 -63 132 -64 125 -64C86 -64 52 -38 42 0L3 157C-8 203 20 248 65 260L116 272C120 272 144 279 144 279C141 275 135 270 135 260V93C135 48 166 8 210 -2L244 -11z" />
    <glyph glyph-name="icon-add-to-collection-filled"
      unicode="&#xE035;"
      horiz-adv-x="512" d=" M115 388H397V358H115V388zM176 448H336V418H176V448zM0 327V-64H512V327H0zM336 117H266V46H236V117H176V147H236V207H266V147H336V117z" />
    <glyph glyph-name="icon-android-icon"
      unicode="&#xB1;"
      horiz-adv-x="438" d=" M407 288C390 288 375 274 375 256V132C375 115 389 101 407 101C424 101 438 115 438 132V256C438 273 424 288 407 288zM31 288C14 288 0 274 0 256V132C0 115 14 101 31 101C49 101 63 115 63 132V256C62 273 48 288 31 288zM81 287V61C81 48 92 37 106 37H133V-32C133 -50 147 -64 164 -64C182 -64 195 -50 195 -32V37H244V-32C244 -50 258 -64 275 -64S306 -50 306 -32V37H334C347 37 358 47 358 61V287H81zM285 404L310 441C312 443 311 446 309 447S305 448 303 446L276 407C259 414 239 418 219 418C198 418 179 414 162 407L135 446C133 448 131 449 129 447C127 446 126 443 128 441L153 404C113 385 84 349 80 307H358C354 349 325 385 285 404zM161 345C152 345 145 352 145 360C145 369 152 376 161 376C169 376 176 369 176 360C176 352 169 345 161 345zM279 345C271 345 264 352 264 360C264 369 271 376 279 376C288 376 295 369 295 360C295 352 288 345 279 345z" />
    <glyph glyph-name="icon-apple-icon"
      unicode="&#xB0;"
      horiz-adv-x="440" d=" M440 72C427 46 422 34 406 10C385 -23 355 -63 317 -64C283 -64 275 -42 229 -42C184 -42 175 -64 141 -64C103 -63 74 -26 53 6C-7 99 -14 206 24 264C50 304 92 328 131 328C171 328 196 306 229 306C261 306 281 328 327 328C362 328 399 309 425 276C338 229 352 105 440 72zM213 325C207 355 221 385 238 406C257 429 289 446 316 448C321 417 308 387 292 365C274 342 243 324 213 325z" />
    <glyph glyph-name="icon-at-the-rate"
      unicode="&#x3E;"
      horiz-adv-x="512" d=" M256 448C115 448 0 333 0 192S115 -64 256 -64C308 -64 358 -49 401 -19C408 -15 409 -5 405 2C400 9 390 10 383 6C346 -20 302 -33 256 -33C132 -33 31 68 31 192S132 417 256 417S482 316 482 192V171C482 139 456 113 424 113S366 139 366 171V192C366 252 316 302 256 302S146 252 146 192S196 82 256 82C293 82 326 101 346 129C361 101 390 82 423 82C472 82 512 122 512 171V192C512 333 397 448 256 448zM256 113C212 113 177 148 177 192S212 271 256 271S335 236 335 192S300 113 256 113z" />
    <glyph glyph-name="icon-back-arrow-no-stem"
      unicode="&#x40;"
      horiz-adv-x="266" d=" M250 -64C246 -64 242 -62 239 -59L5 181C-1 187 -1 197 5 203L239 443C245 450 255 450 261 444S267 428 261 422L37 192L261 -38C267 -44 267 -54 261 -60C258 -62 254 -64 250 -64z" />
    <glyph glyph-name="icon-bakery-fill"
      unicode="&#xE003;"
      horiz-adv-x="490" d=" M389 348C367 408 309 448 245 448C180 448 123 408 100 348C44 348 0 302 0 247C0 201 30 163 71 150L105 -20C105 -24 108 -28 112 -30C114 -31 166 -62 242 -64H247C273 -63 295 -60 314 -55H316C319 -55 321 -54 323 -53C357 -43 377 -31 378 -30C382 -28 384 -25 385 -20L420 150C460 164 490 202 490 247C490 302 445 348 389 348zM269 355L296 376C302 381 312 380 317 374C322 367 321 357 315 352L288 331C285 328 282 327 279 327C274 327 270 329 267 333C261 340 262 349 269 355zM233 264L258 247C265 243 267 233 263 226C260 221 255 219 250 219C247 219 244 220 241 222L217 238C209 243 208 252 212 259C217 267 226 268 233 264zM169 337L194 358C200 363 210 363 215 356C221 349 220 340 214 335L189 313C186 311 182 310 179 310C174 310 170 312 167 315C161 322 162 331 169 337zM82 227C73 227 66 234 66 242S73 258 81 258L115 259C124 259 131 253 131 244C131 236 125 229 116 228L82 227zM194 -27L163 -19C164 23 160 47 150 88C149 97 154 105 162 107S179 103 180 95C191 49 195 20 194 -27zM262 -32H231V92C231 100 238 107 247 107C255 107 262 100 262 92V-32zM342 89C334 44 329 20 330 -18L299 -27C298 16 302 45 312 95C314 103 322 108 330 107C338 105 344 97 342 89zM387 137C361 137 336 146 316 163C297 146 271 136 244 136C218 136 192 146 172 163C153 146 129 137 103 137C98 137 94 141 94 145C94 150 98 154 103 155C126 155 149 165 166 182C168 184 170 185 172 185C175 185 177 184 179 182C196 164 220 154 244 154C269 154 293 164 310 182C312 184 314 185 316 185C319 185 321 184 323 182C340 165 363 155 387 155C392 155 396 151 396 146S392 137 387 137zM407 274L390 250C387 246 382 244 378 244S371 245 369 247C362 252 360 261 365 268L382 292C387 299 396 301 404 296C411 291 412 281 407 274z" />
    <glyph glyph-name="icon-bar-chart"
      unicode="&#xF080;"
      horiz-adv-x="512" d=" M160 128V0H96V128H160zM256 256V0H192V256H256zM512 -32V-64H0V320H32V-32H512zM352 192V0H288V192H352zM448 288V0H384V288H448z" />
    <glyph glyph-name="icon-bar-fill-1"
      unicode="&#xE004;"
      horiz-adv-x="296" d=" M296 275V277L271 435C270 443 264 448 256 448H40C32 448 26 443 25 435L0 278V275C0 197 57 135 133 127V-33H90C82 -33 75 -40 75 -49C75 -57 82 -64 90 -64H206C215 -64 222 -57 222 -49C222 -40 215 -33 206 -33H163V128C239 135 296 197 296 275zM53 417H243L256 332L40 331L53 417z" />
    <glyph glyph-name="icon-bar"
      unicode="&#x62;"
      horiz-adv-x="512" d=" M429 422C383 422 346 385 346 339V337H166L82 422H0V390H69L122 337H93C86 337 81 334 78 328C76 322 77 315 82 311L246 147V-33H177C168 -33 161 -40 161 -48C161 -57 168 -64 177 -64H345C354 -64 360 -57 360 -48C360 -40 354 -33 345 -33H276V147L393 264C405 259 417 256 429 256C475 256 512 293 512 339S475 422 429 422zM392 306L261 176L130 306H392zM429 287C425 287 421 288 418 289L440 311C444 315 446 322 443 328C441 334 435 337 429 337H378C378 338 377 338 377 339C377 367 401 390 429 390S481 367 481 339C481 310 458 287 429 287z" />
    <glyph glyph-name="icon-been-there-fill-1"
      unicode="&#xE055;"
      horiz-adv-x="346" d=" M136 162H9L2 213C-1 241 1 269 10 296L42 396C49 416 67 429 88 429H89C116 429 138 409 141 383L152 263L136 162zM73 -30C39 -30 10 -1 10 36V134L137 135V36C137 -1 108 -30 73 -30zM211 128H338L344 179C348 207 345 235 337 262L305 362C298 382 279 394 259 395H257C231 395 209 375 206 349L195 229L211 128zM273 -64C308 -64 336 -34 336 3V102L210 103V3C210 -34 238 -64 273 -64z" />
    <glyph glyph-name="icon-been-there"
      unicode="&#x45;"
      horiz-adv-x="413" d=" M206 -64C202 -64 198 -63 194 -59L54 97C18 135 -1 186 1 242C3 296 26 350 64 387C102 425 153 446 206 446C260 446 310 425 348 387C354 382 354 372 348 366C343 360 333 360 327 366C295 398 252 416 206 416C161 416 118 398 86 366C53 333 34 288 32 241C30 192 46 148 78 117C78 116 79 115 79 114L206 -26L334 118L336 120C373 159 388 215 377 272C375 280 380 288 389 290C397 292 405 287 407 278C420 210 401 142 356 96H355L217 -59C215 -63 211 -64 206 -64zM205 156C202 156 198 157 195 160L120 233C114 238 114 248 120 254S135 260 142 255L205 192L387 373C393 378 402 378 408 373C414 367 414 357 408 351L216 160C213 157 209 156 205 156z" />
    <glyph glyph-name="icon-beer-mug"
      unicode="&#x42;"
      horiz-adv-x="442" d=" M391 52C421 52 442 87 442 134V151C442 197 416 233 383 233H366C400 245 423 278 423 320C423 370 387 406 337 406C326 406 316 402 308 398C287 431 256 448 218 448C179 448 143 429 122 398C113 402 104 406 93 406C40 406 0 369 0 320C0 274 36 237 83 234C83 231 84 228 84 225L48 32C28 26 13 7 13 -15C13 -42 35 -64 62 -64H377C404 -64 426 -42 426 -15S404 34 377 34H374L372 52H391zM410 151V134C410 101 397 84 391 84H368L355 200H383C396 201 410 179 410 151zM32 320C32 356 62 374 93 374C100 374 108 369 116 364L119 362C123 360 128 359 132 360C136 362 140 365 142 369C156 398 186 416 218 416S272 400 288 369C290 365 293 362 298 360C302 359 307 360 310 362L313 364C322 369 329 374 337 374C370 374 391 354 391 320C391 290 372 260 337 260C322 260 303 271 293 282C290 286 285 287 281 287C276 287 272 286 269 282C247 258 219 250 188 259C183 261 177 259 173 256S167 248 167 242C168 233 166 224 160 218C157 215 151 210 143 210S127 214 122 221C116 229 113 238 115 247C117 252 115 257 112 261C108 264 104 266 100 266H98C62 262 32 288 32 320zM394 -15C394 -24 386 -32 377 -32H62C53 -32 45 -24 45 -15C45 -5 53 2 62 2H377C386 2 394 -5 394 -15zM82 34L111 189C120 182 131 178 143 178C158 178 173 185 184 196C191 204 196 214 198 224C229 220 258 229 282 249C292 241 305 233 319 230L342 34H82zM292 162C291 171 283 177 274 177C265 176 259 168 260 159L270 66C270 58 277 52 285 52H287C296 53 303 60 302 69L292 162zM211 175C202 175 195 168 195 159V68C195 59 202 51 211 51S227 59 227 68V159C227 168 220 175 211 175zM152 171C143 172 135 165 135 156L129 69C128 60 135 52 144 52H145C153 52 160 58 161 67L167 154C167 163 161 171 152 171z" />
    <glyph glyph-name="icon-beverage-fill"
      unicode="&#xE005;"
      horiz-adv-x="395" d=" M390 354C387 357 383 359 378 359H147L144 381C140 419 103 448 60 448H16C7 448 0 441 0 432S7 415 16 415H60C86 415 109 398 111 378L114 359H67C63 359 58 357 55 354C52 350 50 345 51 340L104 -50C106 -58 113 -64 120 -64H324C333 -64 340 -58 341 -50L394 341C395 345 393 350 390 354zM94 270L86 326H117L123 270H94zM202 148C202 157 209 164 218 164S235 157 235 148S227 131 218 131S202 138 202 148zM236 7C227 7 220 15 220 24S227 40 236 40S253 33 253 24C253 14 245 7 236 7zM289 78C280 78 273 85 273 94S280 111 289 111S306 103 306 94S298 78 289 78zM289 167C280 167 273 174 273 183S280 199 289 199S306 192 306 183S298 167 289 167zM156 270L150 326H359L352 270H156z" />
    <glyph glyph-name="icon-bistro-fill"
      unicode="&#xE006;"
      horiz-adv-x="513" d=" M485 323C470 346 454 358 436 358H78C60 358 44 346 29 323C16 304 -4 258 2 243C15 212 45 192 78 192C101 192 123 202 138 218C153 202 175 192 198 192C214 192 229 197 242 206V83C242 82 243 81 243 80C242 79 242 78 242 78C238 27 228 0 221 -16C215 -25 204 -33 187 -33C158 -33 152 -13 152 4C152 12 155 26 175 26C183 25 187 23 188 22V20C185 18 183 13 182 9C182 0 188 -7 197 -7C204 -8 210 -4 214 2C219 10 221 23 215 35C211 43 201 55 176 56C138 56 121 29 121 4C121 -28 138 -64 187 -64C230 -64 250 -32 257 -10C264 -32 284 -64 327 -64C376 -64 393 -27 393 4C393 29 376 56 337 56C312 55 302 43 299 35C292 23 295 10 300 2C304 -4 310 -8 317 -7C325 -7 332 0 331 9C331 13 329 18 326 20V22C327 23 331 25 338 26C359 26 362 12 362 4C362 -13 356 -33 327 -33C309 -33 299 -24 293 -16C286 0 275 27 272 78C272 78 271 79 271 80S272 82 272 83V206C285 198 300 193 316 193C339 193 360 202 376 219C391 202 412 193 435 193C469 193 498 212 511 243C518 259 498 304 485 323z" />
    <glyph glyph-name="icon-booking-1"
      unicode="&#x2202;"
      horiz-adv-x="429" d=" M114 144C116 144 118 144 121 145C129 149 132 157 129 165C121 185 116 212 114 235H316C314 212 309 185 301 165C297 157 301 149 309 145C317 142 325 145 329 154C342 185 347 225 347 252C347 260 340 266 332 266H99C91 266 85 260 85 252C85 227 89 185 103 154C103 147 108 144 114 144zM414 132H15C7 132 0 125 0 117S7 102 15 102H128L151 -64H278L301 102H414C422 102 429 109 429 117S422 132 414 132zM251 -34H178L158 102H269L251 -34zM214 269C264 269 304 308 304 358S264 448 214 448S124 408 124 358S164 269 214 269zM214 418C247 418 274 391 274 358S247 298 214 298S154 325 154 358S181 418 214 418zM260 202C257 210 248 214 240 211L216 202L192 211C184 215 175 210 172 203C170 197 172 190 176 186C172 182 170 175 172 169C175 163 181 159 187 159C189 159 190 159 192 160L216 169L240 160C242 159 244 159 246 159C252 159 258 163 260 169S260 182 256 186C260 190 262 197 260 202z" />
    <glyph glyph-name="icon-breakfast-2"
      unicode="&#xE025;"
      horiz-adv-x="430" d=" M298 324C291 324 284 323 278 323C323 337 355 381 355 433C355 441 348 448 339 448C281 448 233 397 233 333C233 325 240 318 248 318H254C244 315 236 311 230 307V325C230 356 205 381 174 381H132C124 381 117 375 117 366C117 358 124 351 132 351H174C188 351 200 339 200 325V307C188 315 170 324 132 324C59 324 0 250 0 159C0 73 64 -64 140 -64C180 -64 193 -55 203 -44C208 -40 208 -39 215 -39S222 -40 227 -44C237 -54 250 -64 290 -64C366 -64 430 73 430 159C430 250 370 324 298 324zM322 415C316 383 293 358 265 350C272 382 294 408 322 415zM290 -33C259 -33 253 -27 248 -22C241 -15 233 -8 215 -8S189 -15 182 -22C177 -28 171 -33 141 -33C89 -33 31 81 31 159C31 233 77 293 132 293C167 293 179 285 188 278C195 273 203 268 215 268C228 268 235 273 242 278C251 285 263 293 298 293C353 293 399 233 399 159C399 81 341 -33 290 -33z" />
    <glyph glyph-name="icon-browser-1"
      unicode="&#xE042;"
      horiz-adv-x="512" d=" M480 -64H32C14 -64 0 -50 0 -32V416C0 434 14 448 32 448H480C498 448 512 434 512 416V-32C512 -50 498 -64 480 -64zM448 384H64V288H448V384zM448 224H64V0H448V224zM128 320H96V352H128V320zM192 320H160V352H192V320zM416 320H224V352H416V320z" />
    <glyph glyph-name="icon-browser"
      unicode="&#xE041;"
      horiz-adv-x="512" d=" M0 406V-64H512V406H0zM469 -21H43V256H469V-21zM469 278H43V363H469V278zM235 342H192V299H235V342zM171 342H128V299H171V342zM107 342H64V299H107V342z" />
    <glyph glyph-name="icon-budicon-1"
      unicode="&#xE049;"
      horiz-adv-x="448" d=" M112 24V25L110 23S111 24 112 24zM414 351C375 391 309 403 243 337C197 291 169 223 171 174L109 113C85 138 44 138 19 113S-6 47 19 22C33 8 51 3 69 4C68 -14 73 -31 87 -45C112 -70 152 -70 177 -45C202 -21 202 20 177 45L239 107C289 106 356 133 402 179C467 245 454 311 414 351zM148 61L128 41V31C129 31 131 32 132 32C150 32 164 18 164 0S150 -32 132 -32C115 -32 100 -18 100 0C100 9 104 17 109 22L87 45L93 51L92 52C86 43 76 36 64 36C46 36 32 50 32 68S46 100 64 100S97 86 97 68C97 67 95 65 95 64H106L132 90L179 137C182 133 185 128 188 125C192 121 197 118 202 115L148 61zM376 198C322 144 239 119 211 147C182 176 209 257 262 311C316 365 363 357 392 328C421 300 429 252 376 198z" />
    <glyph glyph-name="icon-budicon-2"
      unicode="&#xE04A;"
      horiz-adv-x="510" d=" M494 -32H16C7 -32 0 -39 0 -48S7 -64 16 -64H494C503 -64 510 -57 510 -48S503 -32 494 -32zM319 280V310C319 350 290 384 255 384S191 350 191 310V280C73 251 0 144 0 48V0H510V48C510 144 437 251 319 280zM223 312C223 334 237 352 255 352S287 334 287 312V286C277 287 266 288 255 288S233 287 223 286V312zM479 32H31V43C31 142 119 256 255 256S479 142 479 43V32z" />
    <glyph glyph-name="icon-budicon"
      unicode="&#xE048;"
      horiz-adv-x="512" d=" M342 256L466 367C473 372 473 382 467 389C462 396 452 396 445 391L294 256H342zM382 424C387 432 384 441 376 446C369 451 359 447 354 440L246 256H283L382 424zM496 224H0C0 130 52 47 128 3V0H133C142 -5 152 -10 162 -14C161 -17 160 -20 160 -24C160 -46 178 -64 200 -64H312C334 -64 352 -46 352 -24C352 -20 351 -17 350 -14C360 -10 370 -5 379 0H384V3C460 47 512 130 512 224H496zM320 -32H192V0H320V-32zM369 32H143C86 66 45 123 35 192H477C467 123 426 66 369 32z" />
    <glyph glyph-name="icon-buffet"
      unicode="&#x47;"
      horiz-adv-x="512" d=" M497 16H470C463 113 392 192 299 211C302 218 305 225 305 233C305 260 283 282 256 282S207 260 207 233C207 225 210 218 213 211C120 192 49 113 42 16H15C7 16 0 10 0 1C0 -7 7 -14 15 -14H25L67 -59C70 -62 74 -64 78 -64H430C434 -64 438 -62 441 -59L486 -14H497C505 -14 512 -7 512 1C512 10 505 16 497 16zM238 233C238 243 246 251 256 251S274 243 274 233C274 224 266 216 256 216S238 224 238 233zM256 185C352 185 431 111 439 16H73C81 111 160 185 256 185zM424 -33H85L67 -14H443L424 -33zM256 166C201 166 150 139 119 93C114 86 116 76 123 71C126 70 129 69 132 69C137 69 142 71 145 76C170 113 211 135 256 135C265 135 271 142 271 151C271 159 265 166 256 166z" />
    <glyph glyph-name="icon-butcher-shop-fill"
      unicode="&#xE007;"
      horiz-adv-x="508" d=" M500 328L306 446C302 448 298 449 294 447C290 446 287 444 284 440C225 334 167 236 112 149C75 90 39 35 3 -16C1 -19 0 -24 1 -28S4 -36 8 -38L47 -62C49 -63 52 -64 55 -64C59 -64 64 -62 67 -57L69 -55C102 -7 136 42 167 97L290 21C296 18 303 18 308 23C375 85 468 209 506 310C509 316 506 324 500 328zM50 -28L38 -20C68 23 99 70 130 120L142 113C113 62 81 16 50 -28zM321 336C312 336 305 343 305 351C305 360 312 367 321 367C329 367 336 360 336 351C336 343 329 336 321 336z" />
    <glyph glyph-name="icon-cafe-fill"
      unicode="&#xE008;"
      horiz-adv-x="423" d=" M41 263L73 -49C74 -58 81 -64 90 -64H338C347 -64 354 -58 355 -52L388 263H41zM395 294H407C416 294 423 301 423 310V366C423 375 416 382 407 382H389L350 441C347 445 341 448 336 448H87C81 448 76 445 73 441L34 382H16C7 382 0 375 0 366V310C0 301 7 294 16 294H395zM84 148H341L333 54H95L84 148z" />
    <glyph glyph-name="icon-cakery-fill"
      unicode="&#xE009;"
      horiz-adv-x="512" d=" M463 192H445V367C445 394 423 416 396 416H116C89 416 67 394 67 367V192H49C22 192 0 170 0 142V-49C0 -57 7 -64 15 -64H497C505 -64 512 -57 512 -49V142C512 170 490 192 463 192zM375 366C383 366 390 359 390 351C390 342 383 335 375 335C366 335 359 342 359 351C359 359 366 366 375 366zM306 325C314 325 321 318 321 310C321 301 314 294 306 294C297 294 290 301 290 310C290 318 297 325 306 325zM236 374C244 374 251 367 251 358C251 350 244 343 236 343C227 343 220 350 220 358C220 367 227 374 236 374zM201 309C210 309 217 302 217 293C217 285 210 278 201 278C193 278 186 285 186 293C186 302 193 309 201 309zM128 350C137 350 144 343 144 334C144 326 137 319 128 319C120 319 113 326 113 334C113 343 120 350 128 350zM98 253C134 235 174 225 214 225C240 225 265 229 290 236C290 237 292 237 292 237C331 253 374 258 415 251V192H98V253zM482 -32H31V-9C37 -12 43 -13 50 -13C77 -13 99 9 99 37V91C99 102 108 110 118 110C129 110 137 102 137 91L138 36C138 9 160 -14 187 -14C215 -14 237 9 237 36V92C237 102 246 111 256 111S275 102 275 92V37C275 10 298 -13 325 -13C353 -13 375 10 375 37V92C375 103 383 111 394 111C404 111 413 103 413 92V37C413 10 435 -12 463 -12C470 -12 476 -11 482 -9V-32z" />
    <glyph glyph-name="icon-calendar-line"
      unicode="&#x4B;"
      horiz-adv-x="466" d=" M414 401H391V413C391 425 386 447 354 447S317 425 317 413V401H270V413C270 425 265 447 233 447C202 447 197 425 197 413V401H149V413C149 425 144 447 112 447C81 447 76 425 76 413V401H52C23 401 0 378 0 349V-12C0 -41 24 -64 52 -64H414C442 -64 466 -41 466 -12V349C466 377 444 400 414 401zM349 413V415C350 416 357 416 359 415V338C358 337 351 337 349 338V413zM228 413V415C230 416 237 416 238 415C238 415 239 414 239 413V338C237 337 230 337 228 338V413zM107 413V415C109 416 116 416 118 415V338C116 337 109 337 107 338V413zM435 -13C435 -24 425 -34 414 -34H52C40 -34 31 -24 31 -13V349C31 361 40 370 52 370H76V340C76 327 81 306 113 306C144 306 149 327 149 340V370H197V340C197 327 202 306 233 306C265 306 270 327 270 340V370H318V340C318 327 323 306 354 306C386 306 391 327 391 340V370H415C426 370 435 360 435 349V-13zM371 275H96C79 275 66 262 66 245V31C66 14 79 1 96 1H371C387 1 400 14 400 31V245C400 262 387 275 371 275zM369 152H249V244H369V152zM217 244V152H97V244H217zM97 121H217V32H97V121zM249 32V121H369V32H249z" />
    <glyph glyph-name="icon-calender"
      unicode="&#x2F;"
      horiz-adv-x="512" d=" M496 415H429V432C429 441 422 448 414 448H347C339 448 332 441 332 432V415H180V432C180 441 174 448 165 448H99C90 448 83 441 83 432V415H16C7 415 0 408 0 399V-48C0 -57 7 -64 16 -64H496C505 -64 512 -57 512 -48V399C512 408 505 415 496 415zM363 417H398V365H363V417zM114 417H149V365H114V417zM83 383V349C83 341 90 334 99 334H165C174 334 180 341 180 349V383H331V349C331 341 338 334 347 334H413C422 334 429 341 429 349V383H480V299H31V383H83zM31 -33V268H481V-33H31zM454 146C463 146 470 153 470 162C470 170 463 177 454 177H346V239C346 247 339 254 330 254C322 254 315 247 315 239V177H197V239C197 247 190 254 182 254C173 254 166 247 166 239V177H58C49 177 42 170 42 162C42 153 49 146 58 146H166V78H58C49 78 42 71 42 62C42 54 49 47 58 47H166V-12C166 -21 173 -28 182 -28C190 -28 197 -21 197 -12V47H315V-12C315 -21 322 -28 330 -28C339 -28 346 -21 346 -12V47H454C463 47 470 54 470 62C470 71 463 78 454 78H346V146H454zM315 78H197V146H315V78z" />
    <glyph glyph-name="icon-call-admin"
      unicode="&#x4A;"
      horiz-adv-x="504" d=" M490 179C483 179 477 185 477 192C477 318 374 421 248 421C240 421 234 427 234 435C234 442 240 448 248 448C389 448 504 333 504 192C504 185 498 179 490 179zM406 179C398 179 393 185 393 192C393 272 328 337 248 337C240 337 234 343 234 350C234 358 240 364 248 364C342 364 419 286 419 192C419 185 413 179 406 179zM322 179C314 179 308 185 308 192C308 225 281 252 248 252C240 252 235 258 235 266C235 273 240 279 248 279C296 279 335 240 335 192C335 185 329 179 322 179zM102 344C114 344 128 327 146 308L147 307L148 305C164 286 176 272 178 262C179 256 177 247 155 228C141 215 128 212 124 211C116 209 109 204 106 197C102 189 102 181 105 174C129 119 165 78 213 51C217 48 221 47 226 47C229 47 232 48 235 49C243 52 249 58 251 66C253 72 259 82 272 93C280 101 288 106 294 109C298 111 301 112 304 112C316 112 332 94 349 74C367 53 378 40 379 30C381 24 379 14 357 -5L354 -7C344 -15 334 -24 322 -29C312 -35 300 -37 288 -37C270 -37 251 -33 228 -23C181 -4 144 24 106 67C68 112 46 151 34 201C14 277 41 301 70 325C78 333 86 338 92 341C96 343 99 344 102 344zM102 371C96 371 88 369 80 366C72 361 63 355 52 346C22 319 -16 286 8 194C21 141 45 98 86 50C127 3 167 -27 218 -48C244 -59 267 -64 288 -64C304 -64 320 -60 334 -53C350 -46 363 -35 374 -25C393 -8 410 10 406 35C403 53 390 68 369 92C346 119 328 139 305 139C298 139 290 137 282 133S265 123 255 114C239 100 230 87 226 74C181 100 150 137 130 185C142 187 158 195 173 207C192 224 209 243 205 267C201 285 188 300 167 324C144 350 126 371 102 371z" />
    <glyph glyph-name="icon-call-phone-1"
      unicode="&#xE03C;"
      horiz-adv-x="508" d=" M110 47C198 -42 301 -83 437 -54C454 -49 469 -41 482 -28C520 10 514 65 476 103C418 153 380 151 342 113C327 97 330 80 325 70C325 69 324 68 323 68C316 61 268 29 181 116L178 119C83 214 138 266 138 266L139 267C149 271 163 268 178 280C216 318 213 360 167 413C129 451 74 458 36 420C23 407 14 392 10 375C-20 239 21 136 110 47z" />
    <glyph glyph-name="icon-call-phone"
      unicode="&#xE047;"
      horiz-adv-x="508" d=" M110 47C198 -42 301 -83 437 -54C454 -49 469 -41 482 -28C520 10 514 65 476 103C418 153 380 151 342 113C327 97 330 80 325 70C325 69 324 68 323 68C316 61 268 29 181 116L178 119C83 214 138 266 138 266L139 267C149 271 163 268 178 280C216 318 213 360 167 413C129 451 74 458 36 420C23 407 14 392 10 375C-20 239 21 136 110 47z" />
    <glyph glyph-name="icon-canteen-fill"
      unicode="&#xE00A;"
      horiz-adv-x="510" d=" M311 220C309 226 302 230 296 230H215C208 230 202 226 199 220L125 46C123 40 124 35 127 30S135 23 140 23H177V-47C177 -57 185 -64 194 -64S211 -57 211 -47V22H308V-48C308 -57 315 -64 324 -64C334 -64 341 -57 341 -48V22H371C376 22 381 25 384 30C388 34 388 40 386 45L311 220zM49 58C19 58 0 47 0 30C0 16 12 6 33 3V-34C33 -43 40 -51 49 -51C59 -51 66 -43 66 -34V3C87 6 99 16 99 30C99 47 80 58 49 58zM81 137C49 137 31 128 31 111S49 85 81 85C112 85 130 94 130 111C130 127 112 137 81 137zM113 160C146 160 163 168 163 184C163 201 146 209 113 209S64 201 64 184C64 168 80 160 113 160zM510 30C510 47 491 58 461 58C430 58 411 47 411 30C411 16 424 6 444 3V-34C444 -43 452 -51 461 -51S477 -43 477 -34V3C498 6 510 16 510 30zM480 111C480 128 462 137 430 137S380 128 380 111S398 85 430 85S480 94 480 111zM396 160C429 160 446 168 446 184C446 201 429 209 396 209S346 201 346 184C346 168 363 160 396 160z" />
    <glyph glyph-name="icon-canteen2"
      unicode="&#xE036;"
      horiz-adv-x="512" d=" M463 308H49C22 308 0 286 0 259V-15C0 -42 22 -64 49 -64H463C490 -64 512 -42 512 -15V259C512 286 490 308 463 308zM481 -15C481 -25 473 -33 463 -33H49C39 -33 31 -25 31 -15V259C31 269 39 277 49 277H463C473 277 481 269 481 259V-15zM441 118H211C203 118 197 112 196 104L179 0C178 -4 180 -9 183 -12C185 -16 190 -18 194 -18H441C449 -18 456 -11 456 -2V102C456 111 449 118 441 118zM426 13H212L224 87H426V13zM194 142H334C343 142 350 149 350 158V239C350 247 343 254 334 254H194C186 254 179 247 179 239V158C179 149 186 142 194 142zM210 223H319V173H210V223zM386 142H441C449 142 456 149 456 158V239C456 247 449 254 441 254H386C378 254 371 247 371 239V158C371 149 378 142 386 142zM402 223H426V173H402V223zM101 143C132 143 157 168 157 198C157 229 132 254 101 254C71 254 46 229 46 198C46 168 71 143 101 143zM101 223C115 223 127 212 127 198C127 185 115 174 101 174C88 174 76 185 76 198C77 212 88 223 101 223zM159 118H61C53 118 46 111 46 102V-2C46 -11 53 -18 61 -18H142C149 -18 156 -12 157 -5L174 100C174 104 173 109 170 112C167 116 163 118 159 118zM129 13H77V87H141L129 13z" />
    <glyph glyph-name="icon-card-cashless"
      unicode="&#x80;"
      horiz-adv-x="512" d=" M498 288L352 434C333 452 302 452 284 434L14 165C5 155 0 143 0 131C0 118 5 106 14 97L160 -49C169 -59 182 -64 194 -64C207 -64 219 -59 228 -49L498 220C507 229 512 241 512 254S507 279 498 288zM17 131C17 139 20 147 26 153L296 422C302 428 310 431 318 431S334 428 340 422L362 400L48 87L26 109C20 114 17 122 17 131zM486 232L216 -37C205 -49 184 -49 172 -37L60 74L374 388L486 276C492 270 495 262 495 254S492 238 486 232zM368 316L312 260C308 257 308 251 312 248C314 246 316 246 318 246S322 246 324 248L380 304C383 307 383 313 380 316S371 319 368 316zM244 193L132 80C129 77 129 71 132 68C134 66 136 66 138 66C141 66 143 66 144 68L257 180C260 184 260 189 257 193C253 196 248 196 244 193zM211 92L166 47C163 44 163 38 166 35C168 33 170 32 172 32S176 33 178 35L223 80C226 83 226 88 223 92C219 95 214 95 211 92z" />
    <glyph glyph-name="icon-caret-down"
      unicode="&#xF0D7;"
      horiz-adv-x="512" d=" M511.563 192.027C511.563 183.368 508.399 175.874 502.071 169.547L278.262 -54.263C271.934 -60.59 264.4409999999999 -63.754 255.782 -63.754C247.122 -63.754 239.629 -60.59 233.301 -54.262L9.49 169.547C3.165 175.874 0 183.368 0 192.027C0 200.687 3.164 208.18 9.492 214.508C15.82 220.836 23.313 224 31.972 224H479.59C488.25 224 495.743 220.836 502.071 214.508C508.3989999999999 208.18 511.563 200.687 511.563 192.028z" />
    <glyph glyph-name="icon-cart-icon"
      unicode="&#xE04C;"
      horiz-adv-x="503" d=" M503 335H125L92 448H0V414H59L161 75H427L503 335zM256 -21C256 -45 237 -64 213 -64C190 -64 171 -45 171 -21C171 2 190 21 213 21C237 21 256 2 256 -21zM427 -21C427 -45 408 -64 384 -64S341 -45 341 -21C341 2 360 21 384 21S427 2 427 -21z" />
    <glyph glyph-name="icon-cart"
      unicode="&#xE002;"
      horiz-adv-x="513" d=" M405 33C378 33 357 11 357 -16C357 -42 378 -64 405 -64S454 -42 454 -16C454 11 432 33 405 33zM405 -33C396 -33 387 -26 387 -16S395 2 405 2S423 -6 423 -16S415 -33 405 -33zM198 33C171 33 149 11 149 -16C149 -42 171 -64 198 -64S247 -42 247 -16C247 11 225 33 198 33zM198 -33C188 -33 180 -26 180 -16S188 2 198 2S216 -6 216 -16C216 -25 208 -33 198 -33zM509 276C506 280 502 282 497 282H129L103 386C102 393 96 398 89 398H15C7 398 0 391 0 383C0 374 7 367 15 367H77L148 71C148 70 149 69 150 68V67C150 59 157 52 165 52H434C441 52 446 56 449 63L511 262C513 267 512 272 509 276zM423 83H177L136 251H476L423 83z" />
    <glyph glyph-name="icon-cashless-card"
      unicode="&#xE037;"
      horiz-adv-x="513" d=" M268 433L16 181C-5 159 -5 124 16 102L165 -47C187 -69 222 -69 244 -47L496 205C518 227 518 262 496 284L347 433C325 454 290 454 268 433zM37 160L289 411C300 422 315 422 325 411L344 393L56 106L37 124C27 134 27 150 37 160zM474 227L222 -25C212 -35 197 -35 186 -25L77 85L365 372L474 263C484 253 484 237 474 227zM161 67C157 64 156 61 157 57C157 53 160 48 164 44C173 36 180 35 187 41C189 44 192 48 195 53L201 46C200 41 197 37 193 33C187 28 181 25 175 26C168 26 162 30 156 36C152 40 149 44 147 49C146 53 145 58 146 62S150 71 154 74C157 78 162 81 168 83L172 74L166 71C164 70 162 69 161 67zM235 77L223 83L209 69L215 57L206 48L181 101L191 111L244 86L235 77zM214 88C203 94 197 97 195 98C194 99 193 99 192 100C194 97 198 90 204 78L214 88zM260 124C264 120 265 117 265 112C264 107 262 103 258 98C253 94 249 91 244 90L237 97C240 99 243 100 246 101C248 103 250 104 251 106C253 108 254 109 254 111C254 112 254 114 253 116C252 116 251 117 250 117H247C245 116 243 116 239 114C235 113 232 112 230 112S226 112 224 113S220 115 218 117C215 120 213 124 214 128C214 132 216 137 220 141C222 143 224 144 227 146C229 147 231 148 234 150L238 141C235 139 233 138 231 137S228 135 227 134C225 132 224 131 224 129C224 128 225 126 226 125C226 124 227 124 228 124C229 123 230 123 231 124C232 124 235 125 239 126C244 128 248 129 251 129C255 128 258 127 260 124zM310 152L302 144L285 160L270 145L286 128L278 120L239 159L248 167L263 152L278 167L263 182L271 191L310 152zM320 162L281 200L289 208L321 176L337 192L344 185L320 162zM372 215L350 192L312 231L334 253L340 247L326 233L335 224L348 237L355 231L342 217L351 207L366 222L372 215zM393 256C396 253 398 249 397 244C397 239 394 235 390 231C386 226 381 224 376 222L369 229C372 231 376 232 378 234C380 235 382 236 383 238C385 240 386 242 386 243C387 245 386 246 385 248C384 248 383 249 382 249H379C377 248 375 248 371 246C367 245 365 244 362 244C360 244 358 244 356 245S352 247 350 249C347 252 345 256 346 260C346 265 348 269 352 273C354 275 356 276 359 278C361 279 364 280 366 282L370 273C367 271 365 270 363 269S360 267 359 266C357 264 356 263 356 261C356 260 357 258 358 257C358 256 359 256 360 256H363C364 256 367 257 371 258C376 260 380 261 383 261C387 260 390 259 393 256zM422 286C426 282 427 279 427 274C426 269 424 265 419 260C415 256 411 254 406 252L398 259C402 261 405 262 407 264C410 265 411 266 413 268S416 271 416 273S416 276 414 278C414 278 413 279 412 279H408C407 278 404 278 401 276C397 275 394 274 392 274S388 274 386 275S382 277 380 279C377 282 375 286 375 290C376 295 378 299 382 303C384 305 386 306 388 308C391 309 393 310 396 312L400 303C397 301 395 300 393 299S390 297 388 296C387 294 386 293 386 291C386 290 386 288 387 287S389 286 390 286H393C394 286 397 287 401 288C406 290 410 291 413 291C417 290 420 289 422 286z" />
    <glyph glyph-name="icon-casual-dining-fill"
      unicode="&#xE00B;"
      horiz-adv-x="514" d=" M481 368C464 381 444 389 423 389C396 389 371 377 354 357L318 314C303 296 295 272 297 249C299 231 305 216 316 202L264 140L223 184C247 217 245 263 216 294L132 383C125 390 115 390 109 384C102 378 102 367 108 361L192 271C208 253 211 228 200 208L80 335C74 341 64 342 57 336C51 329 50 319 57 313L176 186C155 176 130 179 113 197L29 287C23 293 13 294 6 287C-1 281 -1 271 5 264L90 175C106 157 130 148 153 148C169 148 185 152 199 161L243 115L116 -37C110 -44 111 -55 118 -60C121 -63 125 -64 129 -64C134 -64 138 -62 142 -58L266 90L406 -58C409 -62 413 -64 418 -64C422 -64 425 -62 429 -59C435 -53 435 -43 429 -36L287 115L341 179C355 171 371 166 387 166C414 166 439 178 457 199L492 241C524 279 519 336 481 368z" />
    <glyph glyph-name="icon-checkmark-semantic"
      unicode="&#xF00C;"
      horiz-adv-x="512" d=" M512 252.365C512 243.557 508.917 236.069 502.751 229.903L263.597 -9.25L218.674 -54.174C212.508 -60.34 205.02 -63.424 196.212 -63.424C187.403 -63.424 179.916 -60.34 173.75 -54.174L128.826 -9.25L9.249 110.326C3.083 116.492 0 123.98 0 132.788C0 141.597 3.083 149.084 9.249 155.25L54.173 200.174C60.339 206.34 67.826 209.424 76.635 209.424C85.443 209.424 92.931 206.34 99.097 200.174L196.212 102.729L412.903 319.751C419.07 325.917 426.557 329 435.365 329C444.1740000000001 329 451.661 325.917 457.827 319.751L502.751 274.827C508.917 268.661 512 261.174 512 252.365z" />
    <glyph glyph-name="icon-close-semantic"
      unicode="&#xF00D;"
      horiz-adv-x="512" d=" M512 35.987C512 24.494 507.978 14.725 499.933 6.68L441.32 -51.933C433.275 -59.978 423.506 -64 412.013 -64C400.521 -64 390.752 -59.978 382.707 -51.933L256 74.774L129.293 -51.933C121.248 -59.978 111.479 -64 99.987 -64C88.494 -64 78.725 -59.978 70.68 -51.933L12.067 6.68C4.022 14.725 0 24.494 0 35.987C0 47.479 4.022 57.2480000000001 12.067 65.293L138.774 192L12.067 318.707C4.022 326.752 0 336.521 0 348.0130000000001C0 359.506 4.022 369.275 12.067 377.32L70.68 435.933C78.725 443.978 88.494 448 99.987 448C111.479 448 121.248 443.978 129.293 435.933L256 309.226L382.707 435.933C390.752 443.978 400.521 448 412.013 448C423.506 448 433.275 443.978 441.32 435.933L499.933 377.32C507.978 369.275 512 359.506 512 348.0130000000001C512 336.521 507.978 326.752 499.933 318.707L373.226 192L499.933 65.293C507.978 57.248 512 47.479 512 35.987z" />
    <glyph glyph-name="icon-club-fill"
      unicode="&#xE00C;"
      horiz-adv-x="512" d=" M180 150C180 131 195 116 214 116S249 131 249 150S233 185 214 185S180 169 180 150zM230 150C230 142 223 135 214 135C206 135 199 142 199 150C199 159 206 166 214 166C223 166 230 159 230 150zM497 365H462V391C462 418 443 448 413 448C382 448 365 419 365 391V365L15 364C7 364 0 357 0 349V-49C0 -57 7 -64 15 -64H497C505 -64 512 -57 512 -49V350C512 358 505 365 497 365zM271 -12C253 -19 234 -22 214 -22C119 -22 42 55 42 150S119 323 214 323C288 323 353 276 377 206C380 198 376 190 368 187S351 188 348 196C328 253 275 292 214 292C136 292 73 228 73 150S136 9 214 9C230 9 246 11 261 17C270 19 278 15 281 7S279 -9 271 -12zM279 150C279 114 250 85 214 85S149 114 149 150S178 215 214 215S279 186 279 150zM432 332H428V176C428 172 426 169 424 166L381 118L398 101C404 95 404 85 398 79L360 41C350 31 337 26 323 26S295 31 285 41C265 61 265 95 285 115L324 154C330 159 339 159 345 154L359 140L397 182V332H396V391C396 399 400 418 413 418S432 400 432 391V332zM307 94C298 85 298 71 307 62C315 54 330 54 338 62L366 90L334 121L307 94z" />
    <glyph glyph-name="icon-coin"
      unicode="&#x3C;"
      horiz-adv-x="512" d=" M256 448C115 448 0 333 0 192S115 -64 256 -64S512 51 512 192S397 448 256 448zM256 -33C132 -33 31 68 31 192S132 417 256 417S481 316 481 192S380 -33 256 -33zM282 242C282 233 289 227 297 227C306 227 313 233 313 242C313 273 292 298 263 305V325C263 334 256 340 248 340C239 340 232 334 232 325V305C204 298 183 273 183 242S204 186 232 179V112C221 117 213 129 213 142C213 151 206 158 198 158C189 158 182 151 182 142C182 112 204 86 232 79V59C232 51 239 44 247 44C256 44 263 51 263 59V79C291 86 313 112 313 142C313 173 291 198 263 206V272C274 267 282 255 282 242zM213 242C213 255 221 267 232 273V211C221 217 213 228 213 242zM282 142C282 129 274 117 263 112V173C274 167 282 156 282 142z" />
    <glyph glyph-name="icon-collections-new"
      unicode="&#x53;"
      horiz-adv-x="481" d=" M238 62L182 36C177 33 172 37 172 43L180 104C180 106 180 108 178 109L136 154C132 158 135 165 140 165L200 177C202 177 204 178 205 180L235 234C237 239 244 239 247 234L276 180C277 178 279 177 281 177L342 165C347 164 349 158 345 154L303 109C302 108 301 106 301 104L309 43C310 37 304 33 299 36L244 62C242 63 239 63 238 62zM427 -64H54C24 -64 0 -40 0 -10V283C0 313 24 337 54 337H427C457 337 481 313 481 282V-10C481 -40 457 -64 427 -64zM54 306C41 306 31 296 31 283V-10C31 -23 41 -34 54 -34H427C440 -34 450 -23 450 -10V283C450 296 440 306 427 306H54zM421 362H60V377C60 386 67 392 76 392H406C414 392 421 386 421 377V362zM373 417H108V432C108 441 115 448 124 448H357C366 448 373 441 373 432V417z" />
    <glyph glyph-name="icon-collections"
      unicode="&#xE046;"
      horiz-adv-x="512" d=" M0 -64V325H512V-64H0zM491 304H21V-42H491V304zM152 188H210L228 244C232 256 243 264 256 264S280 256 283 244L301 188H360C372 188 383 180 387 168S387 143 377 135L330 101L348 46C351 34 347 20 337 13C332 9 326 7 320 7S308 9 303 13L256 47L209 13C199 6 185 6 175 13C164 20 160 34 164 46L182 101L135 136C125 143 120 156 124 168S139 188 152 188zM147 153L207 110L184 39C183 36 184 33 187 31S194 29 196 31L256 74L315 31C318 29 322 29 325 31C327 33 328 36 327 39L305 110L364 153C367 155 368 158 367 162C366 165 363 167 360 167H286L263 237C262 240 259 242 256 242C252 242 249 240 248 237L226 167H152C148 167 145 165 144 162C143 158 144 155 147 153zM113 396H399V375H113V396zM174 448H338V427H174V448z" />
    <glyph glyph-name="icon-comment"
      unicode="&#xF7;"
      horiz-adv-x="512" d=" M32 -64C28 -64 24 -62 20 -59C16 -54 15 -47 18 -41L70 56C25 96 0 148 0 200C0 317 115 412 256 412S512 317 512 200S397 -12 256 -12C225 -12 196 -5 174 1L38 -62C36 -63 34 -64 32 -64zM256 381C132 381 31 300 31 200C31 153 56 106 99 72C105 67 107 59 103 52L67 -15L166 32C169 34 174 34 177 33C198 26 226 19 256 19C380 19 481 100 481 200S380 381 256 381z" />
    <glyph glyph-name="icon-copy"
      unicode="&#x10E;"
      horiz-adv-x="494" d=" M489 241V242L439 288C436 291 432 292 429 292H204C196 292 189 285 189 277V-49C189 -57 196 -64 204 -64H478C487 -64 494 -57 494 -49V231C494 235 492 239 489 241zM463 -33H220V262H413V231C413 227 415 223 418 220S424 215 429 215H463V-33zM31 417H227V395C227 387 234 380 242 380H274V331H305V395C305 400 303 404 299 407L252 445L251 444C249 446 245 448 242 448H16C7 448 0 441 0 433V106C0 98 7 91 16 91H149V122H31V417zM409 208H274C265 208 258 201 258 192C258 184 265 177 274 177H409C417 177 424 184 424 192C424 201 417 208 409 208zM409 125H274C265 125 258 118 258 109C258 101 265 94 274 94H409C417 94 424 101 424 109C424 118 417 125 409 125zM409 42H274C265 42 258 35 258 26C258 18 265 11 274 11H409C417 11 424 18 424 26C424 35 417 42 409 42zM89 369C81 369 74 362 74 354C74 345 81 338 89 338H225C233 338 240 345 240 354C240 362 233 369 225 369H89zM142 293H89C81 293 74 286 74 277C74 269 81 262 89 262H142C150 262 157 269 157 277C157 286 150 293 142 293zM142 210H89C81 210 74 203 74 194C74 186 81 179 89 179H142C150 179 157 186 157 194C157 203 150 210 142 210z" />
    <glyph glyph-name="icon-cost-for-two"
      unicode="&#x46;"
      horiz-adv-x="512" d=" M346 166V391C346 446 191 448 173 448S0 446 0 391V101C0 50 126 44 166 44V-7C166 -61 310 -64 339 -64S512 -61 512 -7V109C512 160 381 165 346 166zM482 52C477 42 425 25 339 25S201 42 197 51V74C243 53 326 52 339 52S435 53 481 74L482 52zM315 334C311 324 259 307 173 307S35 324 30 333V356C77 335 160 334 173 334S269 335 315 356V334zM173 276C194 276 272 278 315 298V276C311 266 259 249 173 249S35 266 31 275V298C75 278 153 276 173 276zM173 218C194 218 272 220 315 240V218C311 208 259 191 173 191S35 208 30 217V240C75 220 153 218 173 218zM31 182C75 162 153 160 173 160C194 160 272 162 315 182V165C277 164 207 157 178 133H173C87 133 35 150 30 159V182H31zM339 83C257 83 206 99 197 109C206 119 253 134 328 135H339C421 135 472 119 481 109C472 99 421 83 339 83zM173 417C255 417 306 401 315 391C306 381 255 365 173 365S40 381 31 391C40 401 91 417 173 417zM31 101V123C71 105 138 102 166 102V74C84 76 35 92 31 101zM339 -33C253 -33 201 -16 197 -7V16C241 -4 318 -6 339 -6C359 -6 438 -4 481 16V-6C477 -16 425 -33 339 -33z" />
    <glyph glyph-name="icon-credit-cards"
      unicode="&#x49;"
      horiz-adv-x="514" d=" M269 433L17 181C-5 159 -5 124 17 102L166 -47C188 -69 223 -69 245 -47L497 205C519 227 519 262 497 284L348 433C326 454 291 454 269 433zM38 159L291 412C301 422 316 422 327 412L345 393L57 105L38 124C28 134 28 149 38 159zM476 227L223 -26C213 -36 198 -36 187 -26L78 84L366 372L476 263C486 252 486 237 476 227z" />
    <glyph glyph-name="icon-cross-filter"
      unicode="&#x36;"
      horiz-adv-x="512" d=" M497 448H15C7 448 0 441 0 433V-49C0 -57 7 -64 15 -64H497C505 -64 512 -57 512 -49V433C512 441 505 448 497 448zM481 -33H31V417H481V-33zM152 66L256 170L360 66C366 60 376 60 382 66S388 81 382 88L278 192L382 296C388 302 388 312 382 318S367 324 360 318L256 214L152 318C146 324 136 324 130 318S124 303 130 296L234 192L130 88C124 82 124 72 130 66S145 60 152 66z" />
    <glyph glyph-name="icon-cross-thick"
      unicode="&#x58;"
      horiz-adv-x="514" d=" M298 192L505 399C516 410 516 428 505 439V440C499 445 492 448 484 448S469 445 464 440L257 233L50 439C45 445 38 448 30 448S15 445 9 440V439C-2 428 -2 410 9 399L216 192L10 -15C-1 -26 -2 -44 9 -55L10 -56C15 -61 23 -64 30 -64C38 -64 46 -61 51 -56L257 151L464 -56C469 -61 476 -64 484 -64S499 -61 505 -56C515 -45 515 -26 505 -15L298 192z" />
    <glyph glyph-name="icon-cross"
      unicode="&#x78;"
      horiz-adv-x="514" d=" M279 192L509 422C515 428 515 438 509 444S493 450 487 444L257 214L27 443C21 449 11 449 5 443C-1 438 -1 428 5 422L235 192L6 -38C0 -44 0 -54 6 -60C9 -63 13 -64 16 -64C20 -64 24 -63 27 -60L257 170L487 -60C490 -63 494 -64 498 -64C501 -64 506 -63 508 -60C514 -54 514 -44 508 -38L279 192z" />
    <glyph glyph-name="icon-cuisine-1"
      unicode="&#xE03F;"
      horiz-adv-x="420" d=" M304 448C296 448 289 441 289 433V-49C289 -57 296 -64 304 -64C313 -64 319 -57 319 -49V82H404C413 82 420 89 420 98C420 283 355 448 304 448zM319 113V402C346 364 386 260 389 113H319zM183 448C175 448 168 441 168 433V328C168 295 145 269 115 261V433C115 441 108 448 99 448C91 448 84 441 84 433V262C54 269 31 296 31 328V433C31 441 24 448 16 448C7 448 0 441 0 433V328C0 279 37 238 84 230V-49C84 -57 91 -64 99 -64C108 -64 115 -57 115 -49V230C162 238 198 279 198 328V433C198 441 191 448 183 448z" />
    <glyph glyph-name="icon-cuisine"
      unicode="&#x43;"
      horiz-adv-x="420" d=" M304 448C296 448 289 441 289 433V-49C289 -57 296 -64 304 -64C313 -64 319 -57 319 -49V82H404C413 82 420 89 420 98C420 283 355 448 304 448zM319 113V402C346 364 386 260 389 113H319zM183 448C175 448 168 441 168 433V328C168 295 145 269 115 261V433C115 441 108 448 99 448C91 448 84 441 84 433V262C54 269 31 296 31 328V433C31 441 24 448 16 448C7 448 0 441 0 433V328C0 279 37 238 84 230V-49C84 -57 91 -64 99 -64C108 -64 115 -57 115 -49V230C162 238 198 279 198 328V433C198 441 191 448 183 448z" />
    <glyph glyph-name="icon-current-location"
      unicode="&#x38;"
      horiz-adv-x="512" d=" M256 448C115 448 0 333 0 192S115 -64 256 -64S512 51 512 192S397 448 256 448zM277 -22V73C277 85 268 94 256 94S235 85 235 73V-22C133 -12 52 69 42 171H137C149 171 158 180 158 192S149 213 137 213H42C52 315 134 396 235 406V322C235 310 244 301 256 301S277 310 277 322V406C379 396 460 314 470 213H386C374 213 365 204 365 192S374 171 386 171H470C460 69 379 -12 277 -22z" />
    <glyph glyph-name="icon-daily-menu"
      unicode="&#x2211;"
      horiz-adv-x="403" d=" M344 435C343 443 337 449 329 449H76C68 449 61 443 60 435L1 -46C0 -54 6 -62 15 -63H16C24 -63 31 -57 32 -49L39 9H365L371 -49C372 -58 380 -64 389 -63C397 -62 403 -54 402 -46L344 435zM43 40L89 418H316L361 40H43zM68 -27V-43C68 -51 75 -58 83 -58C92 -58 99 -51 99 -43V-3H68V-27zM301 -27V-43C301 -51 308 -58 316 -58C325 -58 332 -51 332 -43V-3H301V-27zM279 340H121C113 340 106 333 106 325C106 316 113 309 121 309H279C287 309 294 316 294 325C294 333 287 340 279 340zM279 240H121C113 240 106 233 106 225S113 210 121 210H279C287 210 294 217 294 225S287 240 279 240zM279 141H121C113 141 106 134 106 125C106 117 113 110 121 110H279C287 110 294 117 294 125C294 134 287 141 279 141z" />
    <glyph glyph-name="icon-deli-fill"
      unicode="&#xE00D;"
      horiz-adv-x="512" d=" M142 -31C153 -12 154 14 145 44C120 131 56 128 44 127C27 120 13 105 6 84S-2 38 6 13C18 -32 53 -64 89 -64C94 -64 100 -63 105 -62C106 -61 108 -61 110 -60C119 -56 133 -47 142 -31zM62 -2C56 -4 50 1 47 9S47 25 53 26C59 28 65 23 68 16C70 8 68 0 62 -2zM78 46C72 44 66 49 63 57S63 73 69 74C75 76 81 71 84 64C87 56 84 48 78 46zM110 -2C104 -3 98 2 95 9C92 17 95 25 101 27C107 28 113 24 116 16S116 0 110 -2zM252 121C278 142 306 168 334 201C326 209 317 217 307 224C282 241 255 249 242 253C223 229 200 207 174 188C189 182 208 171 226 154C237 144 246 132 252 121zM511 292C507 311 487 323 459 323C453 323 447 323 440 321C438 321 436 320 434 320C435 322 435 323 435 325C440 361 426 391 402 394S357 372 352 336C351 325 351 315 353 307C338 309 322 309 307 304C286 298 268 287 254 270C271 266 295 257 318 241C328 234 338 227 347 218C360 235 374 254 387 274C390 279 396 280 401 278C406 275 407 268 404 264C390 241 375 220 361 202C378 179 392 148 393 107C403 117 413 127 421 137L423 139C442 165 448 199 439 230C438 233 437 235 436 237H437C443 237 450 237 456 239C471 242 486 248 495 256C508 267 513 280 511 292zM407 329C404 308 393 296 390 296C387 297 379 310 382 332C385 353 395 365 399 365C402 364 409 351 407 329zM477 279C470 274 461 270 450 268C446 267 442 267 437 267C426 267 419 269 416 272L414 274S415 277 420 281C426 286 435 290 446 292C450 293 455 294 459 294C474 294 482 289 482 287C482 286 481 283 477 279zM347 186C318 151 288 123 262 102C275 72 276 40 272 11C309 34 343 59 373 87C376 125 367 158 347 186zM245 89C209 63 180 49 166 43C175 10 172 -18 159 -42C159 -43 158 -43 158 -44C190 -32 220 -18 250 -2C257 36 254 65 245 89zM160 63C174 69 202 83 236 109C212 151 170 169 154 174C133 161 111 150 87 141C112 132 142 111 160 63z" />
    <glyph glyph-name="icon-delivery"
      unicode="&#x64;"
      horiz-adv-x="512" d=" M405 132H379V168C389 163 401 160 414 160C422 160 429 167 429 175V258C429 267 422 273 414 273C401 273 389 270 379 265C376 287 362 298 339 298H306C297 298 290 291 290 283C290 274 297 267 306 267H339C348 267 349 267 349 258V142C349 95 325 57 289 41C282 72 265 102 240 123C253 130 263 144 263 158V200C263 209 256 215 248 215H32C24 215 17 209 17 200V176C17 172 18 168 21 165L58 127C24 103 0 62 0 17C0 9 7 2 15 2H43C50 -36 83 -64 123 -64S196 -36 203 2H248C258 2 269 3 279 6C280 6 281 6 282 7C292 9 302 14 311 19H332V17C332 -28 368 -64 414 -64C459 -64 495 -28 495 17V19H497C505 19 512 26 512 34C512 84 459 132 405 132zM80 149L47 182V185H232V159C232 155 226 149 223 149H80zM123 -34C100 -34 81 -19 75 2H172C165 -19 146 -34 123 -34zM248 33H32C40 78 80 118 123 118H173C216 118 251 75 259 33H248zM405 102C437 102 469 77 479 49H347C360 64 368 82 374 102H405zM398 240V193C386 196 379 205 379 217C379 228 386 237 398 240zM465 17C465 -11 442 -33 414 -33S363 -11 363 17V19H465V17z" />
    <glyph glyph-name="icon-dessert-parlour-fill"
      unicode="&#xE00E;"
      horiz-adv-x="408" d=" M15 202C7 202 0 195 0 187C0 90 83 11 188 4V-33H137C128 -33 121 -40 121 -49C121 -57 128 -64 137 -64H271C280 -64 287 -57 287 -49C287 -40 280 -33 271 -33H219V4C325 11 408 90 408 187C408 195 401 202 393 202H15zM202 223C197 250 179 272 154 283C141 291 123 290 123 290H121C119 290 117 289 115 289L68 437C65 445 57 450 49 447C40 445 36 436 38 428L85 282C62 270 44 249 39 223H202zM370 223C363 261 329 290 289 290H286C269 291 256 283 256 283C231 272 213 250 208 223H370zM286 310C281 336 264 358 241 369C244 375 246 381 246 388C246 410 228 428 205 428C183 428 164 410 164 387C164 381 166 374 169 369C145 358 128 336 123 310C123 310 185 307 202 257C202 256 224 313 286 310zM204 378C199 378 195 382 195 387C195 393 199 397 204 397C210 397 214 392 214 387S210 378 204 378z" />
    <glyph glyph-name="icon-dhaba-fill"
      unicode="&#xE00F;"
      horiz-adv-x="513" d=" M506 295C501 305 491 312 480 313C458 317 439 298 435 274C434 266 435 258 437 250H341L471 415H489C497 415 504 421 504 429C504 438 497 444 489 444H464C460 444 456 442 453 438L304 250L76 251C79 258 79 266 78 274C75 298 55 316 33 313C24 312 15 307 10 299C2 289 -1 276 1 262C3 246 13 232 27 226C48 152 142 100 256 100S465 152 486 226C499 232 509 245 512 262C514 275 512 286 506 295zM476 285C479 285 481 282 481 280C483 277 484 272 484 267C482 258 477 252 472 252H471C469 252 468 254 467 255C464 259 463 264 464 270C465 279 471 285 476 285zM33 282C34 283 36 285 38 285C43 285 49 279 50 270C51 265 50 260 48 256C47 255 45 253 42 252C37 252 32 258 30 267C30 273 31 278 33 282zM306 68C301 67 296 64 294 60L290 53L272 84C267 93 252 93 247 84L229 53L225 60C223 65 218 68 213 68C207 68 203 65 200 61C190 43 166 1 166 -18C166 -42 188 -64 212 -64H307C319 -64 330 -59 339 -50S353 -29 353 -18C353 1 330 43 319 61C317 65 312 68 306 68zM307 -35H212C204 -35 195 -26 195 -18C196 -12 203 4 212 22L215 15C217 10 222 7 228 7C233 7 238 10 241 14L260 47L279 14C281 10 286 7 292 7C297 7 302 10 304 15L308 22C317 4 324 -12 324 -18L307 -35z" />
    <glyph glyph-name="icon-diner-fill"
      unicode="&#xE010;"
      horiz-adv-x="512" d=" M130 55H91L80 179C78 202 59 218 36 218H14C6 218 0 212 0 205V-49C0 -57 6 -63 14 -63H175C183 -63 189 -57 189 -49V-4C189 29 163 55 130 55zM498 221H477C454 221 436 205 433 182L423 53H389C357 53 331 27 331 -5V-49C331 -57 337 -63 345 -63H498C505 -63 511 -57 511 -49V207C512 215 506 221 498 221zM279 -41V100H374C378 100 381 103 381 107V128C381 132 378 135 374 135H147C143 135 139 132 139 128V107C139 103 143 100 147 100H241V-41L216 -52C214 -54 214 -57 215 -60C217 -62 219 -64 222 -64H297C301 -64 304 -60 304 -56C304 -54 304 -52 302 -51L279 -41zM21 246H336C345 246 351 253 351 261V418C351 427 345 433 336 433H21C13 433 6 427 6 418V261C6 253 13 246 21 246zM38 404H318V278H38V404zM392 299H497C505 299 512 305 512 314V418C512 427 505 433 497 433H392C384 433 377 427 377 418V314C377 305 384 299 392 299z" />
    <glyph glyph-name="icon-dinner"
      unicode="&#xE02C;"
      horiz-adv-x="512" d=" M316 -30C207 -30 119 58 119 166C119 275 207 362 316 362C424 362 512 274 512 166S424 -30 316 -30zM288 195C288 230 256 275 256 275C254 275 254 276 253 276C248 278 244 278 241 273C241 273 214 229 214 208V18C232 6 252 -3 273 -8V87L284 96C287 97 288 100 288 103V195zM409 249C407 253 403 252 403 247V174C403 163 399 156 392 156S381 163 381 174C381 177 382 251 371 251S361 177 361 174C361 164 357 156 350 156S339 163 339 174V247C339 252 335 253 333 249C315 205 316 154 316 154C316 115 356 82 361 68C364 59 364 19 363 -7C369 -5 374 -4 380 -2C379 23 378 60 381 68C385 82 426 115 426 154C427 154 427 205 409 249zM253 101H232V209C232 220 242 240 250 254C259 240 272 215 272 195V107L265 101H253zM154 21C154 -7 131 -30 102 -30C74 -30 51 -7 51 21S74 72 102 72C131 72 154 49 154 21zM26 -64C12 -64 0 -53 0 -39S12 -13 26 -13S51 -25 51 -39S40 -64 26 -64z" />
    <glyph glyph-name="icon-discover"
      unicode="&#xE02D;"
      horiz-adv-x="512" d=" M299 149L342 278L213 235L299 149zM256 448C115 448 0 333 0 192S115 -64 256 -64S512 51 512 192S397 448 256 448zM248 415C248 420 251 423 256 423S264 420 264 415V365C264 360 261 357 256 357S248 360 248 365V415zM83 184H33C28 184 25 187 25 192S28 200 33 200H83C88 200 91 197 91 192S88 184 83 184zM264 -31C264 -36 261 -39 256 -39S248 -36 248 -31V19C248 24 251 27 256 27S264 24 264 19V-31zM362 289L313 140C312 137 310 136 308 135L159 85C158 84 158 84 157 84C154 84 153 85 151 87C148 90 147 93 149 95L199 244C200 247 201 248 204 249L353 298C356 299 359 298 361 297C363 294 364 291 362 289zM479 184H429C424 184 421 187 421 192S424 200 429 200H479C484 200 487 197 487 192S484 184 479 184z" />
    <glyph glyph-name="icon-diy-fill"
      unicode="&#xE011;"
      horiz-adv-x="459" d=" M88 -48C88 -57 96 -64 105 -64H353C362 -64 370 -57 370 -48V3H88V-48zM459 290C458 354 408 392 359 392C348 392 338 391 329 387C316 420 280 448 229 448S142 420 129 387C120 391 110 392 99 392C50 392 0 354 0 290C0 241 42 209 88 203V23H159V94C159 103 167 111 176 111S192 103 192 94V23H213V112C213 121 220 129 229 129S245 121 245 112V23H266V94C266 103 273 111 282 111S299 103 299 94V23H370V203C416 209 459 241 459 290z" />
    <glyph glyph-name="icon-dollar"
      unicode="&#x24;"
      horiz-adv-x="196" d=" M113 206V341C143 334 166 307 166 275C166 266 172 260 181 260C189 260 196 266 196 275C196 324 160 365 113 372V433C113 441 106 448 98 448S83 441 83 433V372C36 365 0 324 0 275S36 185 83 178V43C53 50 30 77 30 109C30 118 24 124 15 124C7 124 0 118 0 109C0 60 36 19 83 12V-49C83 -57 90 -64 98 -64S113 -57 113 -49V12C160 19 196 60 196 109S160 199 113 206zM30 275C30 307 53 334 83 341V210C53 216 30 243 30 275zM113 44V175C143 168 166 141 166 109S143 50 113 44z" />
    <glyph glyph-name="icon-down-arrow-01"
      unicode="&#x2022;"
      horiz-adv-x="513" d=" M513 186C513 182 511 178 508 175L268 -59C262 -65 252 -65 246 -59L6 175C-1 181 -1 191 5 197S21 203 27 197L257 -27L487 197C493 203 503 203 509 197C511 194 513 190 513 186z" />
    <glyph glyph-name="icon-download-admin"
      unicode="&#x76;"
      horiz-adv-x="512" d=" M497 -33H15C7 -33 0 -40 0 -48C0 -57 7 -64 15 -64H497C505 -64 512 -57 512 -48C512 -40 505 -33 497 -33zM253 44C255 43 257 42 258 41H259C260 40 262 39 265 39C267 39 269 40 271 41S275 43 276 44L422 198C428 205 428 214 422 220S406 226 400 220L281 93V424C281 433 274 440 265 440C257 440 250 433 250 424V93L130 220C124 226 114 226 108 221C102 215 102 205 108 199L253 44z" />
    <glyph glyph-name="icon-edit-profile-new"
      unicode="&#x65;"
      horiz-adv-x="513" d=" M41 133L44 131L1 -43C-1 -49 1 -55 5 -59S15 -64 21 -63L196 -19H197L198 -18C199 -18 201 -17 202 -15L485 267C498 280 507 297 511 314C515 333 509 353 495 366L430 432C420 442 406 448 390 448C369 448 347 438 330 421L49 139C47 137 46 136 45 134C45 133 45 132 44 132L41 133zM40 -24L69 95L158 5L40 -24zM191 20L84 127L86 129L299 342L406 235L191 20zM429 258L322 365L358 401C375 416 396 419 407 408L472 343C474 341 481 334 478 320C476 311 471 302 464 294L429 258z" />
    <glyph glyph-name="icon-empty-bookmarks"
      unicode="&#xA1;"
      horiz-adv-x="484" d=" M206 252C206 242 197 234 187 234C176 234 168 242 168 252C168 263 176 271 187 271C197 271 206 263 206 252zM320 252C320 242 311 234 301 234C290 234 282 242 282 252C282 263 290 271 301 271C311 271 320 263 320 252zM204 169C248 196 281 171 282 170C285 167 290 168 292 171C295 174 294 178 291 181C291 181 280 189 264 193C258 194 252 195 245 195C231 195 215 192 197 181C193 179 192 175 194 171C196 168 201 167 204 169zM484 445H0V421H68C67 419 67 416 67 413V-32C67 -49 81 -64 99 -64C107 -64 115 -61 121 -55L237 84C240 86 244 86 247 84L363 -54L364 -55C370 -61 377 -64 385 -64C403 -64 417 -49 417 -32V413C417 416 417 418 416 421H484V445zM394 413V-32C394 -38 389 -40 385 -40C384 -40 382 -40 380 -38L265 99L264 100C258 106 250 109 242 109S226 106 220 100L104 -38C102 -39 101 -40 99 -40C95 -40 90 -37 90 -31V413C90 417 94 421 99 421H164V353H188V421H297V353H320V421H385C390 421 394 417 394 413z" />
    <glyph glyph-name="icon-empty-food-journey"
      unicode="&#x3C0;"
      horiz-adv-x="508" d=" M500 279H484C484 280 481 284 472 282C472 284 472 285 470 286C408 307 333 306 260 285V293C260 296 258 298 255 298S249 295 249 293V285C182 306 107 307 39 286C38 285 37 284 37 282C31 283 26 281 26 280C25 280 24 279 24 278C23 279 22 279 21 279H8C4 279 0 276 0 271V-48C0 -53 4 -56 8 -56H219L233 -63C234 -63 236 -64 237 -64H273C274 -64 275 -63 276 -63L290 -56H500C504 -56 508 -53 508 -48V271C508 276 504 279 500 279zM478 276V-29C476 -28 474 -28 472 -27V275C476 276 477 276 478 276zM251 277C252 276 253 276 255 276C256 276 257 276 258 277C330 300 404 301 466 280V-25C406 -11 327 -13 256 -30C256 -30 255 -30 255 -31H254C253 -31 253 -30 252 -30C182 -13 104 -13 43 -27V280C111 301 184 300 251 277zM30 275C32 276 35 276 37 275V-29C36 -29 34 -30 31 -30H30V275zM225 -41C224 -41 222 -40 221 -40H16V264H24V-33C24 -34 24 -35 25 -36C25 -36 26 -37 27 -36H32C35 -36 38 -35 41 -35C100 -20 177 -20 247 -36V-48H238L225 -41zM493 -40H288C287 -40 286 -41 285 -41L271 -48H262V-35C338 -18 421 -19 481 -36C482 -37 483 -36 483 -36C484 -35 485 -34 485 -33V264H493V-40zM222 380C223 378 224 377 225 375L250 346H251C250 345 249 344 249 342V338C249 335 252 333 255 333S260 335 260 338V342C260 344 260 345 259 346L285 375C286 376 287 377 288 379L291 383C293 386 294 389 295 392C297 397 298 401 297 407C297 412 296 417 294 421L293 424L258 391C258 390 258 390 257 390L256 391L241 405C240 406 239 407 239 408C239 410 240 411 241 411C242 412 243 412 244 412S246 412 247 411L257 401L288 432L287 434C283 438 279 441 274 443C269 446 264 447 259 447H255C249 447 244 446 239 444S229 439 226 435C222 431 218 427 217 422C214 417 213 411 213 406S214 396 215 392C216 387 219 383 222 380zM229 432C236 439 245 442 255 442H258C266 442 275 438 281 432L257 408L250 415C248 417 246 418 243 418C241 418 239 417 237 416C235 414 234 411 234 409C234 406 235 404 237 402L253 387C254 386 256 385 257 385C259 385 261 386 262 387L291 416C292 413 293 410 293 407C293 403 292 398 291 394S288 386 285 383V382L282 379L256 350L255 349S254 349 254 350L229 379C227 380 226 382 225 383C223 386 221 390 220 393C218 397 218 401 218 406C218 415 222 424 229 432zM255 326C252 326 249 323 249 321V310C249 307 252 305 255 305S260 307 260 310V321C260 323 258 326 255 326zM255 248C258 248 260 251 260 254V264C260 267 258 270 255 270S249 267 249 264V254C249 251 252 248 255 248zM61 108H65C66 108 67 109 68 110C69 109 70 109 70 109L94 103C96 103 98 104 100 105V106C102 108 106 112 109 114C115 118 121 122 124 123H125C127 124 127 125 127 126C127 128 126 130 124 130H101C100 130 99 129 99 129C98 127 97 127 95 127C92 127 90 129 90 131C90 134 92 136 95 136C97 136 98 136 99 134V133H101L123 132C124 132 125 133 126 133C127 134 127 135 128 136V137L126 139C125 140 125 140 124 140C121 141 115 144 109 149C105 152 102 155 100 157V158C98 159 97 160 95 159L71 155C70 155 69 154 69 154C68 155 67 155 65 155H61C60 155 58 154 57 153S55 150 55 149V115C55 113 56 112 57 111C58 109 59 108 61 108zM71 115V150S72 150 72 151L95 155H96C96 154 97 154 97 154C99 152 102 149 105 145H106C110 142 115 139 118 137H102L99 140C98 141 96 141 95 141C89 141 85 137 85 132S90 123 95 123C96 123 98 123 99 124S101 125 102 126H118C115 124 110 122 106 119S98 112 97 109H95L71 114V115zM60 149C60 150 61 151 61 151H65L66 150V114L65 113H61S60 114 60 115V149zM149 127C152 127 154 129 154 131C154 134 152 136 149 136H140C138 136 135 134 135 131C135 129 138 127 140 127H149zM198 127C201 127 203 129 203 131C203 134 201 136 198 136H189C187 136 185 134 185 131C185 129 187 127 189 127H198zM174 127C176 127 178 129 178 131C178 134 176 136 174 136H165C162 136 160 134 160 131C160 129 162 127 165 127H174zM209 131C209 129 211 127 214 127H223C225 127 227 129 227 131C227 134 225 136 223 136H214C211 136 209 134 209 131zM336 206H345C348 206 350 208 350 210C350 213 348 215 345 215H336C333 215 331 213 331 210C331 208 333 206 336 206zM360 206H369C372 206 374 208 374 210C374 213 372 215 369 215H360C358 215 356 213 356 210C356 208 358 206 360 206zM311 206H320C323 206 325 208 325 210C325 213 323 215 320 215H311C309 215 307 213 307 210C307 208 309 206 311 206zM287 206H296C298 206 301 208 301 211C301 213 298 215 296 215H287C284 215 282 213 282 211C282 208 284 206 287 206zM255 13C252 13 249 11 249 8V-1C249 -4 252 -7 255 -7S260 -4 260 -1V8C260 11 258 13 255 13zM255 38C252 38 249 36 249 33V24C249 21 252 19 255 19S260 21 260 24V33C260 36 258 38 255 38zM255 -11C252 -11 249 -14 249 -17V-26C249 -29 252 -31 255 -31S260 -29 260 -26V-17C260 -14 258 -11 255 -11zM92 205H206C210 205 213 208 213 212S210 219 206 219H92C88 219 85 216 85 212S88 205 92 205zM296 131C296 128 299 125 303 125L417 124C421 124 424 127 424 131S421 138 417 138H303C299 138 296 135 296 131zM206 62H92C88 62 85 59 85 55S88 48 92 48H206C210 48 213 51 213 55S210 62 206 62zM287 50H296C298 50 301 53 301 55C301 58 298 60 296 60H287C284 60 282 58 282 55C282 53 284 50 287 50zM345 60H336C333 60 331 58 331 55C331 53 333 50 336 50H345C348 50 350 53 350 55C349 58 348 60 345 60zM369 60H360C358 60 356 58 356 55C356 53 358 50 360 50H369C372 50 374 53 374 55C374 58 372 60 369 60zM320 60H311C309 60 307 58 307 55C307 53 309 51 311 51H320C323 51 325 53 325 55C325 58 323 60 320 60zM415 66C408 66 402 60 402 53C402 45 408 39 415 39C423 39 429 45 429 53C429 60 423 66 415 66zM415 45C411 45 408 49 408 53S411 61 415 61C420 61 423 57 423 53C423 48 420 45 415 45zM390 75C387 75 384 72 384 69V35C384 32 387 29 390 29H440C444 29 447 32 447 35V68C447 72 444 75 440 75H431L429 79C428 80 427 81 425 81H407C405 81 403 80 402 79L400 75H390zM440 35H390S389 35 389 36V69L390 70H401C402 70 404 71 405 72L407 76H425L427 72C427 71 429 70 430 70H440C441 70 441 69 441 69V36C441 35 441 35 440 35zM385 222L400 213V211L395 192C394 191 394 191 394 190C394 190 395 189 395 188C396 187 397 187 398 187S400 188 401 188L415 200C415 201 416 201 416 201L417 200L432 188C433 187 433 187 435 187C436 187 437 187 438 188V192L431 211C431 212 432 213 432 213L447 222C447 223 448 223 448 223C449 224 449 224 449 226C449 226 448 227 448 228C447 228 447 229 446 229H427C426 229 426 229 426 230H425L420 249C420 250 419 251 419 251C419 252 418 253 416 253C415 253 414 252 413 251V249L407 230C407 229 406 229 406 229H385C385 228 384 228 384 228C383 227 383 226 383 226C383 225 384 224 384 223L385 222zM416 246V247C418 240 421 224 421 224H438C439 224 440 223 440 223H439L425 214V213L432 196V195L431 196L416 209V246zM250 192C250 191 249 190 249 189V180C249 177 251 174 255 174C258 174 260 177 260 180V189C260 190 260 191 259 192C268 194 275 202 275 212C275 221 269 230 260 232V236C260 240 257 242 255 242C252 242 249 239 249 236V232C241 229 235 221 235 212C235 202 241 194 250 192zM255 226C263 226 269 220 269 212S263 198 255 198S241 204 241 212S247 226 255 226zM259 153C260 153 260 154 260 155V164C260 167 258 170 255 170S249 167 249 164V155C249 154 250 153 250 152C241 150 235 142 235 133S241 116 250 113V103C250 100 252 98 255 98S260 100 260 103V113C269 115 276 123 276 133S269 151 259 153zM255 119C247 119 241 125 241 133C241 140 248 147 255 147C263 147 269 140 269 133C269 125 263 119 255 119zM260 77V88C260 91 258 93 255 93S249 91 249 88V79C249 78 250 77 250 76C242 74 235 66 235 56C235 45 244 36 256 36C267 36 276 45 276 56C276 66 269 74 260 77zM255 43C247 43 241 49 241 57S248 71 255 71C263 71 269 64 269 57C269 49 263 43 255 43zM262 56C262 53 259 49 255 49S248 53 248 56C248 60 251 63 255 63S262 60 262 56zM262 133C262 129 259 126 255 126S248 129 248 133S251 140 255 140S262 137 262 133zM262 212C262 208 259 205 255 205S248 208 248 212S251 219 255 219S262 216 262 212z" />
    <glyph glyph-name="icon-empty-photo"
      unicode="&#xE1;"
      horiz-adv-x="512" d=" M512 -37C512 -25 503 -14 491 -12L490 237C502 239 512 250 512 262V263C512 277 500 288 486 288H431V311C431 319 424 326 414 326L343 325C333 325 326 318 326 310V288H271C264 288 258 285 253 280S246 269 246 262C246 249 255 239 267 236V220H25C18 220 12 218 7 213C3 209 0 202 0 196V107C0 97 8 90 17 90H84C108 90 127 70 127 46V21C127 11 136 2 146 2H267V-12C262 -13 257 -16 253 -20C248 -24 246 -31 246 -38C246 -52 257 -64 271 -64H486C493 -64 500 -61 504 -56C509 -51 512 -45 512 -38V-37zM343 310H414C415 310 416 310 416 309V288H341V309C341 310 342 310 343 310zM146 18V10V18C144 18 143 20 143 21V46C143 79 116 105 84 105H17C16 105 16 106 16 107V196C16 198 17 200 18 202C20 204 23 205 25 205H266V18H146zM261 262C261 265 262 268 264 270C266 271 268 273 271 273H486C492 273 496 268 496 262S492 252 486 252H271C265 252 261 256 261 262zM282 134V236H475V-12H282V134zM493 -45C491 -47 489 -48 486 -48H271V-56V-48C265 -48 261 -44 261 -38C261 -35 262 -32 264 -31C266 -29 268 -27 271 -27H486C492 -27 496 -32 496 -38C496 -41 495 -43 493 -45zM39 195C33 195 28 190 28 184V179C28 173 33 167 39 167S50 173 50 179V184C50 190 45 195 39 195zM73 195C67 195 62 190 62 184V179C62 173 67 167 73 167S84 173 84 179V184C84 190 79 195 73 195zM107 195C101 195 96 190 96 184V179C96 173 101 167 107 167S118 173 118 179V184C118 190 113 195 107 195zM141 195C135 195 130 190 130 184V179C130 173 135 167 141 167S152 173 152 179V184C152 190 147 195 141 195zM175 168C182 168 187 173 187 179V184C187 190 182 195 175 195C169 195 164 190 164 184V179C164 173 169 168 175 168zM209 168C216 168 221 173 221 179V184C221 190 216 195 209 195C203 195 198 190 198 184V179C198 173 203 168 209 168zM244 168C250 168 255 173 255 179V184C255 190 250 195 244 195S232 190 232 184V179C232 173 237 168 244 168zM175 56C169 56 164 51 164 45V40C164 34 169 29 175 29C182 29 187 34 187 40V45C187 51 182 56 175 56zM210 56C204 56 198 51 198 45V40C198 34 204 29 210 29S221 34 221 40V45C221 51 216 56 210 56zM246 56C240 56 235 51 235 45V40C235 34 240 29 246 29S257 34 257 40V45C257 51 252 56 246 56zM434 137C434 131 429 127 423 127S413 131 413 137S417 148 423 148S434 143 434 137zM346 137C346 131 342 127 336 127S325 131 325 137S330 148 336 148S346 143 346 137zM339 84C340 81 343 79 347 79C347 79 358 82 378 82C397 82 408 79 408 79H410C413 79 415 81 416 84C417 88 414 91 411 92C411 92 398 94 378 94C357 94 345 92 344 92C340 91 338 88 339 84z" />
    <glyph glyph-name="icon-empty-review"
      unicode="&#xAC;"
      horiz-adv-x="512" d=" M491 329C490 333 487 336 483 336H344C319 336 298 321 289 298L261 227C259 222 254 218 247 218H231V221C230 231 217 240 202 240H167C153 240 139 229 136 215L132 199V198C129 160 129 120 132 80V79L136 63C136 62 137 60 137 59C136 53 135 44 135 37C136 29 136 22 142 21H143C153 21 158 26 158 38C158 39 158 41 157 42C160 41 163 41 166 41C176 42 191 42 201 41H205C218 41 229 48 230 58V61H247C253 61 258 57 260 52L287 -19C297 -42 318 -57 342 -57H477C483 -57 489 -53 491 -47C504 9 511 74 511 140C513 207 506 273 491 329zM476 -40H344C327 -40 312 -29 306 -14L278 57C272 70 261 78 248 78H219S218 78 218 77C217 77 217 76 216 76L214 74C214 73 214 73 213 72V71L212 60C211 59 208 57 203 58C192 59 176 59 165 58C160 57 154 62 152 68L148 83C145 121 145 158 148 196L152 212C153 218 160 223 167 223H201C207 223 212 220 213 220L214 209V208C214 207 214 207 215 206L216 205L217 204L218 203C219 203 219 202 220 202H248C261 202 273 210 278 222L306 293C313 309 328 319 345 319H476C489 265 496 203 496 139S488 14 476 -40zM159 -29C44 -29 44 -44 44 -50C44 -54 47 -59 52 -59C52 -59 102 -64 160 -64S266 -59 267 -59C271 -59 276 -54 276 -50C274 -44 274 -29 159 -29zM14 -45C7 -45 0 -49 0 -54C0 -56 0 -57 1 -57C1 -57 8 -60 14 -60C21 -60 26 -57 26 -57C27 -57 27 -56 27 -54C28 -49 22 -45 14 -45zM374 183C374 177 369 172 363 172C356 172 351 177 351 183C351 190 356 195 363 195C369 195 374 190 374 183zM374 89C374 82 369 77 363 77C356 77 351 82 351 89C351 95 356 100 363 100C369 100 374 95 374 89zM420 171C418 172 416 170 415 168C415 168 412 154 412 132S415 97 415 97C416 95 417 94 419 94H420C422 94 423 96 423 98C423 98 420 111 420 132C420 154 423 166 423 167C423 169 422 171 420 171z" />
    <glyph glyph-name="icon-envelope"
      unicode="&#xA7;"
      horiz-adv-x="512" d=" M436 404H76C31 404 0 372 0 328V13C0 -31 32 -64 74 -64H435C478 -64 512 -30 512 13V328C512 372 481 404 436 404zM436 372C444 372 451 370 457 368L268 139L56 368C62 371 69 372 77 372H436zM480 12C480 -13 461 -32 435 -32H74C50 -32 32 -14 32 12V327C32 333 33 339 34 344L257 104C260 100 264 98 268 98H269C273 98 278 101 281 104L478 342C479 338 481 333 481 327V12H480z" />
    <glyph glyph-name="icon-events-1"
      unicode="&#x1D3;"
      horiz-adv-x="511" d=" M160 336H164C170 336 177 341 179 348L195 419C197 427 192 436 184 437C176 439 167 434 165 426L149 355C147 347 152 338 160 336zM373 336H377C383 336 390 341 392 348L408 419C410 427 405 436 397 437C389 439 380 434 378 426L362 355C360 347 365 338 373 336zM223 362H329C337 362 344 369 344 377C344 386 337 393 329 393H223C214 393 207 386 207 377C207 369 214 362 223 362zM203 215C187 215 171 210 157 201L164 186C171 191 178 193 182 195C187 196 192 197 197 197C205 197 210 195 213 192S217 185 215 179C212 165 200 157 179 157H167L163 140H174C186 140 195 138 200 135C204 131 206 126 204 119C203 111 199 105 193 101C187 98 179 96 168 96C162 96 157 97 151 98C145 100 139 102 134 104L130 86C139 81 151 78 166 78C182 78 196 82 206 89C217 96 224 106 227 119C229 127 228 134 224 140C219 145 212 148 202 150C212 153 219 156 225 162C231 167 236 174 238 183C240 193 238 201 232 206C226 212 216 215 203 215zM265 182L272 169C286 178 294 183 297 185C299 187 301 189 303 190C301 184 299 176 296 166L277 80H298L328 213H310L265 182zM511 380C511 381 511 382 510 382C510 384 509 385 509 386C508 386 508 387 508 387S508 388 507 388C506 389 505 390 504 390L503 391C501 392 498 393 496 393H442C434 393 427 386 427 377C427 369 434 362 442 362H479C475 338 472 315 468 293H89C92 316 95 338 98 362H122C130 362 137 369 137 377C137 386 130 393 122 393H84C76 393 70 387 69 379C53 239 32 131 1 29C-1 25 1 19 3 16C6 12 11 9 16 9H55C55 8 54 7 54 6V-48C54 -57 61 -64 70 -64H496C505 -64 511 -57 511 -48V380zM84 263H463C445 165 425 93 399 40H37C56 108 72 180 84 263zM85 -33V9H408C414 9 419 13 422 18C445 63 464 120 481 195V-33H85z" />
    <glyph glyph-name="icon-expertise-yay"
      unicode="&#xE001;"
      horiz-adv-x="512" d=" M382 -43H143C137 -43 133 -48 133 -54C133 -59 137 -64 143 -64H382C388 -64 393 -59 393 -54C393 -48 388 -43 382 -43zM394 172C390 173 385 172 382 168L324 92L270 168C268 170 265 172 262 172C258 172 255 170 253 168L199 92L141 168C138 172 134 173 129 172C125 170 122 166 122 161L129 -10C129 -16 134 -20 140 -20H382C388 -20 393 -16 393 -10L401 161C402 166 399 170 394 172zM379 128L373 22L337 74L379 128zM186 74L149 22L145 129L186 74zM160 1L199 56L241 1H160zM212 74L262 143L310 74L261 10L212 74zM323 56L362 1H281L323 56zM128 197C129 197 131 197 132 198L140 206C142 209 142 212 140 215L132 223C130 225 126 225 123 223L115 215C113 212 113 209 115 206L123 198C125 197 126 197 128 197zM258 198C259 197 260 196 262 196C263 196 265 197 266 198L274 206C276 209 276 212 274 215L266 223C264 225 260 225 258 223L249 215C247 212 247 209 249 206L258 198zM400 223C398 225 394 225 392 223L383 215C381 212 381 209 383 206L392 198C393 197 394 196 396 196C397 196 399 197 400 198L408 206C410 209 410 212 408 215L400 223zM443 109C445 109 446 109 447 110L474 125C478 127 479 133 477 137S470 143 465 140L439 125C435 123 433 118 436 113C438 111 440 109 443 109zM474 -12L448 3C444 5 438 4 436 -1C434 -5 435 -10 439 -12L466 -27C467 -28 468 -28 470 -28C473 -28 476 -27 477 -24C479 -20 478 -15 474 -12zM503 66H472C467 66 463 62 463 58C463 53 467 49 472 49H503C508 49 512 53 512 58C512 62 508 66 503 66zM73 125L47 140C42 143 37 141 35 137S34 127 38 125L65 110C66 109 67 109 69 109C72 109 75 111 76 113C78 118 77 123 73 125zM65 3L38 -12C34 -15 33 -20 35 -24C36 -27 39 -28 42 -28C44 -28 45 -28 47 -27L73 -12C77 -10 79 -5 76 -1C74 4 69 5 65 3zM49 58C49 63 45 67 40 67H9C4 66 0 62 0 58C0 53 4 49 9 49H40C45 49 49 53 49 58z" />
    <glyph glyph-name="icon-expertise"
      unicode="&#x2018;"
      horiz-adv-x="502" d=" M462 -26H44C34 -26 25 -35 25 -45C25 -56 33 -64 44 -64H462C473 -64 481 -56 481 -45C481 -35 472 -26 462 -26zM483 349C476 352 467 350 462 343L360 210L266 343C262 348 257 351 251 351C244 350 239 348 236 343L141 210L40 343C35 350 26 352 19 349C11 347 6 339 7 331L18 31C19 21 27 13 37 13H462C472 13 480 21 480 31L495 331C496 339 491 347 483 349zM456 274L446 87L382 178L456 274zM118 178L53 88L46 274L118 178zM72 50L142 148L215 50H72zM164 179L251 300L336 179L250 67L164 179zM358 148L427 51H284L358 148zM30 387C34 387 37 389 39 391L57 409C59 411 60 414 60 417C60 421 59 424 57 426L39 444C34 448 26 448 21 444L4 426C1 424 0 421 0 418C0 414 1 411 4 409L21 391C24 389 27 387 30 387zM242 391C245 389 248 387 251 387S257 389 260 391L277 409C280 411 281 414 281 417C281 421 280 424 277 426L260 444C255 448 247 448 242 444L224 426C222 424 221 421 221 417C221 414 222 411 224 409L242 391zM498 426L480 444C476 449 468 449 463 444L445 426C443 424 442 421 442 418C442 414 443 411 445 409L463 391C465 389 468 388 471 388C475 388 478 389 480 391L498 409C500 411 501 414 501 418C502 421 501 424 498 426z" />
    <glyph glyph-name="icon-eye-views"
      unicode="&#xBA;"
      horiz-adv-x="512" d=" M256 -64C135 -64 30 18 1 136L0 140L1 143C30 262 135 344 256 344S482 262 511 144L512 140L511 137C482 18 377 -64 256 -64zM31 140C58 37 150 -34 256 -34S454 37 481 140C454 242 362 313 256 313S58 242 31 140zM256 25C192 25 141 76 141 140S192 256 256 256S371 204 371 140S319 25 256 25zM256 225C209 225 171 186 171 140C171 93 209 55 256 55S341 93 341 140C341 186 303 225 256 225z" />
    <glyph glyph-name="icon-facebook-box"
      unicode="&#x79;"
      horiz-adv-x="512" d=" M415 448H0V-64H253V124H189V205H254V264S252 297 279 323C308 350 335 350 335 350H415V270H354S334 274 334 249V206H414V124H334V-64H512V448H415z" />
    <glyph glyph-name="icon-facebook-semantic"
      unicode="&#xF09A;"
      horiz-adv-x="266" d=" M265.846 444.308V363.077H217.538C199.898 363.077 188 359.385 181.846 352S172.616 333.538 172.616 318.77V260.615H262.769L250.769 169.538H172.615V-64H78.462V169.538H0V260.615H78.462V327.692C78.462 365.846 89.128 395.4360000000001 110.462 416.462C131.795 437.487 160.205 448 195.692 448C225.846 448 249.231 446.77 265.846 444.308z" />
    <glyph glyph-name="icon-facebook"
      unicode="&#xB6;"
      horiz-adv-x="237" d=" M157 282V335C157 355 170 360 180 360H216C227 360 237 369 237 380V427C237 439 227 448 216 448H158C70 448 51 382 51 341V282H21C9 282 0 273 0 262V212C0 201 9 192 21 192H51V-44C51 -55 60 -64 71 -64H136C148 -64 157 -55 157 -44V192H210C221 192 229 200 230 210L236 260C237 272 227 282 215 282H157z" />
    <glyph glyph-name="icon-feedback"
      unicode="&#x50;"
      horiz-adv-x="512" d=" M463 240H429V349C429 354 426 359 422 362C417 365 412 365 407 362C394 356 383 350 372 344C306 309 254 282 98 282H73C32 282 0 246 0 200V159C0 115 30 85 73 85H98C117 85 134 85 150 84C153 20 187 -37 239 -63C241 -64 243 -64 245 -64C251 -64 257 -61 259 -56C263 -48 260 -39 252 -35C212 -15 184 31 181 82C272 73 317 49 366 22C379 15 393 8 407 0C409 -1 411 -1 413 -1C416 -1 419 0 422 1C426 4 429 9 429 14V127H463C491 127 512 146 512 171V192C512 218 489 240 463 240zM73 116C47 116 31 132 31 159V200C31 225 47 251 73 251H98C117 251 133 251 149 252V114C133 115 116 116 98 116H73zM398 39C393 43 387 45 381 48C330 77 281 103 180 113V254C284 263 332 289 386 317C390 319 394 322 399 324V39H398zM481 171C481 162 472 157 463 157H429V210H463C472 210 481 201 481 192V171z" />
    <glyph glyph-name="icon-filter-1"
      unicode="&#xE045;"
      horiz-adv-x="404" d=" M402 327C405 319 404 312 398 307L257 166V-46C257 -54 253 -60 246 -63C243 -64 241 -64 239 -64C233 -64 229 -63 226 -59L153 14C149 18 147 22 147 27V166L6 307C0 312 -1 319 2 327C6 334 11 338 19 338H385C393 338 398 334 402 327z" />
    <glyph glyph-name="icon-find-friends-1"
      unicode="&#xE03A;"
      horiz-adv-x="511" d=" M339 124V155C349 163 365 183 367 218C370 220 373 223 375 227C378 233 380 240 380 248C379 259 376 269 370 275C375 288 382 311 377 333C370 363 329 374 296 374C268 374 235 366 221 346C208 346 200 341 195 336C181 320 187 293 192 276C190 274 188 272 187 269C184 263 182 256 182 248C182 234 187 224 195 218C198 182 217 163 227 154V124C217 121 207 117 197 114C137 93 100 79 92 53C82 22 82 -45 82 -49C82 -57 88 -64 97 -64H344V-34H112C113 -10 115 26 121 44C125 57 174 74 207 85C221 90 235 95 248 100C254 102 258 107 258 114V162C258 168 254 173 250 176C248 176 224 189 224 227C224 234 219 240 213 242C212 245 212 250 213 253C220 255 224 261 224 268C224 271 224 274 222 280C214 307 216 314 217 315C218 315 221 316 227 315C235 313 242 318 244 326S266 344 296 344S346 334 348 326C352 310 345 291 341 281C339 275 337 272 337 268C337 261 342 255 349 253C350 250 350 245 349 242C346 241 344 240 342 238C339 235 338 231 338 227C338 189 317 175 317 175C312 173 309 168 309 162V114C309 107 313 102 319 99L339 124zM148 367C134 377 116 379 99 372C81 365 66 349 62 334C57 316 62 296 68 280C63 274 60 266 60 256C60 248 62 242 65 236C67 232 69 230 71 228C74 197 90 181 100 173V164L96 163C30 138 19 119 10 92C8 85 0 50 1 42C1 37 1 28 0 19C0 -7 0 -8 1 -9L2 -10H9C13 -11 17 -11 20 -11S28 -11 30 -7C24 104 66 119 102 132L120 140C127 142 130 148 130 154V182C130 189 127 194 121 197C121 197 101 206 101 238C101 244 97 250 91 252C90 254 90 257 91 259C97 262 101 267 101 274C101 277 100 280 98 284V286C94 296 88 314 91 328C92 331 99 339 110 344C117 347 124 346 131 342C133 341 136 340 139 340C144 340 149 342 152 346C154 350 155 354 154 358C154 362 152 365 148 367zM432 45V112C432 120 426 127 417 127C409 127 402 120 402 112V45H336C328 45 321 39 321 30C321 22 328 15 336 15H403V-49C403 -57 409 -64 418 -64C426 -64 433 -57 433 -49V15H496C505 15 511 22 511 30C511 39 505 46 496 46H432V45z" />
    <glyph glyph-name="icon-fine-dining-fill"
      unicode="&#xE012;"
      horiz-adv-x="512" d=" M263 33C249 48 214 83 148 83H114V84C114 93 107 100 98 100H15C7 100 0 93 0 84V-49C0 -57 7 -64 15 -64H98C107 -64 114 -57 114 -49V-47H414C422 -47 429 -40 429 -32C429 15 344 32 263 33zM49 -24C44 -24 40 -20 40 -15C40 -11 44 -7 49 -7C53 -7 57 -11 57 -15C57 -20 53 -24 49 -24zM114 -17V52H148C178 52 200 43 215 33H148C140 33 133 26 133 18C133 9 140 2 148 2H256C316 2 358 -7 380 -17H114zM497 183H470C463 279 392 358 299 377C303 384 305 391 305 400C305 426 283 448 256 448S207 426 207 399C207 391 209 384 213 377C120 358 49 279 42 183H15C7 183 0 176 0 167C0 159 7 152 15 152H25L67 107C70 104 74 102 78 102H431C435 102 439 104 441 107L487 152H497C505 152 512 159 512 167C512 176 505 183 497 183zM256 417C266 417 274 409 274 399S266 381 256 381C246 382 238 390 238 399C238 409 246 417 256 417zM119 259C150 304 201 332 256 332C264 332 271 325 271 317C271 308 264 301 256 301C211 301 169 279 144 242C141 237 136 235 132 235C129 235 126 236 123 237C116 242 114 251 119 259zM424 133H85L67 152H443L424 133z" />
    <glyph glyph-name="icon-flag-1"
      unicode="&#x21;"
      horiz-adv-x="463" d=" M16 -64C7 -64 0 -57 0 -49V433C0 441 7 448 16 448C24 448 31 441 31 433V-49C31 -57 24 -64 16 -64zM329 95C265 95 252 121 252 143C252 154 232 157 215 157C162 157 82 131 81 131C76 129 71 130 67 133S61 141 61 145V399C61 406 65 411 71 413C75 415 159 442 217 442C274 442 282 415 282 399C282 395 283 390 292 386C298 384 310 380 331 380C381 380 444 397 444 397C449 398 454 397 457 394C461 391 463 387 463 382V129C463 122 459 115 452 114C449 113 383 95 329 95zM215 187C274 187 283 159 283 143C283 128 311 125 329 125C366 125 412 135 433 140V362C409 357 368 350 332 350C310 350 293 353 280 358C262 366 252 380 252 399C252 409 233 412 218 412C176 412 116 395 92 388V166C121 174 174 187 215 187z" />
    <glyph glyph-name="icon-flag"
      unicode="&#x4F;"
      horiz-adv-x="396" d=" M387 293L21 447C19 447 17 448 15 448H14S13 447 12 447C10 447 9 447 8 446C7 446 7 446 7 445C6 445 5 444 5 444L4 443C3 442 2 441 1 439V438C0 436 0 434 0 433V-49C0 -57 7 -64 15 -64C24 -64 30 -57 30 -49V105L387 264C393 267 396 272 396 279C396 285 392 290 387 293zM30 139V410L342 278L30 139z" />
    <glyph glyph-name="icon-follow-web"
      unicode="&#xFB;"
      horiz-adv-x="512" d=" M485 75H424V136C424 150 413 162 399 162C384 162 373 150 373 136V75H312C298 75 286 63 286 49S298 24 312 24H373V-37C373 -51 385 -63 399 -63S424 -52 424 -37V24H486C500 24 511 36 511 50C512 64 500 75 485 75zM277 120V154C287 162 304 183 307 219C310 222 313 226 316 230C319 236 320 244 320 253C320 265 317 275 311 282C316 296 324 320 318 344C310 376 266 387 231 387C201 387 165 379 150 357C136 357 127 351 122 346C106 329 113 300 118 282C116 280 115 277 113 275C110 268 108 260 108 252C108 238 113 226 122 219C125 180 146 156 157 146V121C145 116 131 112 118 108C64 90 21 76 12 48C1 14 0 -45 0 -47C0 -52 2 -56 5 -59C8 -61 12 -64 17 -64H312V-32L33 -31C34 -11 37 20 43 38C47 50 96 66 128 77C146 82 163 88 179 94C185 97 190 103 190 109V153C190 158 187 163 183 166C183 167 154 186 154 230C154 237 149 243 142 245C141 248 141 255 142 258C145 259 147 260 149 262C152 265 154 269 154 273S153 280 151 286C143 315 145 322 146 323S150 324 156 323C165 322 173 327 175 335C178 344 199 354 231 354S284 344 287 335C291 319 283 299 279 289C277 283 275 279 275 275C275 267 280 261 287 259C288 255 288 248 287 244C280 243 275 236 275 229C275 188 254 176 253 175C248 173 245 167 245 161V109C245 102 249 96 255 94C257 93 259 92 262 91C269 89 276 94 276 101L277 120z" />
    <glyph glyph-name="icon-followed-1"
      unicode="&#xFC;"
      horiz-adv-x="512" d=" M502 122C490 131 473 129 464 117L384 11L344 46C333 57 317 56 307 45C296 35 297 18 308 8L371 -50C382 -60 398 -59 406 -48L507 85C515 97 513 114 502 122zM276 119V153C286 162 303 181 306 218C309 221 312 224 314 229C318 235 319 243 319 251C319 264 316 274 310 281C315 295 323 318 317 342C309 374 265 386 230 386C200 386 164 378 149 356C135 356 127 350 122 345C106 328 113 299 118 281C116 278 114 276 113 273C109 267 108 259 108 251C108 236 113 225 121 218C124 179 145 155 157 144V120C144 115 131 111 118 107C64 89 21 75 12 47C1 14 0 -46 0 -48C0 -52 2 -56 5 -59S12 -64 16 -64H311V-32H32C34 -11 36 19 42 37C46 50 95 66 127 77C144 82 162 88 178 94C185 96 189 102 189 109V152C189 158 186 163 182 166C182 166 153 186 153 229C153 236 148 243 141 244C140 248 140 254 141 257C144 258 146 259 148 261C151 264 153 268 153 273C153 276 152 279 150 285C142 314 144 321 146 323C146 323 149 324 156 322C164 321 172 326 175 334C177 343 199 353 230 353C262 353 283 343 286 334C290 318 282 298 278 288C276 282 274 278 274 274C274 266 279 260 286 258C288 255 288 248 286 244C279 242 274 236 274 229C274 188 253 175 253 175C247 173 244 167 244 161V109C244 102 248 96 254 94C256 93 258 92 261 92C268 89 275 94 275 101L276 119z" />
    <glyph glyph-name="icon-followers"
      unicode="&#x32;"
      horiz-adv-x="512" d=" M512 192C512 51 397 -64 256 -64S0 51 0 192S115 448 256 448S512 333 512 192zM31 192C31 68 132 -33 256 -33S481 68 481 192S380 417 256 417S31 316 31 192zM389 265V116C389 107 382 100 374 100H257V44C257 38 253 32 247 30C241 27 235 29 230 33L81 179C75 185 75 195 81 201L230 348C235 352 241 353 247 351C253 348 257 343 257 337V280H374C382 280 389 273 389 265zM359 131V250H241C233 250 226 257 226 265V300L114 190L226 80V115C226 124 233 131 241 131H359z" />
    <glyph glyph-name="icon-following"
      unicode="&#x37;"
      horiz-adv-x="512" d=" M0 192C0 333 115 448 256 448S512 333 512 192S397 -64 256 -64S0 51 0 192zM481 192C481 316 380 417 256 417S31 316 31 192S132 -33 256 -33S481 68 481 192zM123 119V268C123 277 130 284 138 284H255V340C255 346 259 352 265 354C271 357 277 355 282 351L431 205C437 199 437 189 431 183L282 36C277 32 271 31 265 33C259 36 255 41 255 47V104H138C130 104 123 111 123 119zM153 253V134H271C279 134 286 127 286 119V84L398 194L286 304V269C286 260 279 253 271 253H153z" />
    <glyph glyph-name="icon-food-court-fill"
      unicode="&#xE013;"
      horiz-adv-x="512" d=" M496 444H15C6 444 0 437 0 429C0 420 6 414 15 414H97V1C97 -35 126 -64 161 -64H447C482 -64 511 -35 511 1V428C512 437 505 444 496 444zM297 268C297 240 279 216 251 208V14C251 5 244 -2 235 -2S218 5 218 14V208C191 216 172 240 173 268V349C173 358 180 366 189 366S205 358 205 349V268C205 259 210 249 219 244V349C219 358 226 366 235 366S251 358 251 349V244C260 249 265 259 265 268V349C265 358 272 366 281 366S297 358 297 349V268zM436 268C436 240 417 216 390 208V14C390 5 382 -2 373 -2S357 5 357 14V208C330 216 311 240 311 268V303C311 338 339 366 373 366C408 366 436 338 436 303V268z" />
    <glyph glyph-name="icon-food-truck-fill"
      unicode="&#xE014;"
      horiz-adv-x="512" d=" M497 249H115C110 249 105 246 102 241L54 161L6 121C2 118 0 114 0 109V-15C0 -24 7 -31 16 -31H55C64 -50 84 -64 107 -64S149 -50 158 -31H354C363 -50 383 -64 405 -64C428 -64 448 -50 457 -31H497C506 -31 512 -24 512 -15V233C512 242 506 249 497 249zM107 -33C93 -33 81 -22 81 -7C81 7 93 19 107 19C122 19 133 7 133 -7C133 -22 122 -33 107 -33zM150 146H81L124 218H150V146zM406 -33C391 -33 380 -22 380 -7C380 7 391 19 406 19C420 19 432 7 432 -7C432 -22 420 -33 406 -33zM451 104H215V215H451V104z" />
    <glyph glyph-name="icon-forward-arrow-1"
      unicode="&#xE044;"
      horiz-adv-x="299" d=" M255 235L44 446L0 402L211 191L0 -20L44 -64L255 147L299 191z" />
    <glyph glyph-name="icon-forward-arrow"
      unicode="&#xE038;"
      horiz-adv-x="176" d=" M18 -64C14 -64 9 -62 5 -58C-1 -51 -1 -39 6 -33L131 83L7 197C0 203 0 215 6 222C13 229 24 230 32 223L170 96C173 92 176 88 176 83S173 73 170 69L31 -59C27 -62 23 -64 18 -64z" />
    <glyph glyph-name="icon-free-meals"
      unicode="&#xE03B;"
      horiz-adv-x="512" d=" M427 -64H256C224 -64 191 -56 159 -41L104 -13L115 9L170 -19C198 -33 228 -40 256 -40H426C447 -40 463 -23 463 -3V-2L487 193C487 212 471 229 451 229H317V314C317 350 294 403 262 422C256 425 252 423 250 422C246 420 243 416 243 412V310L119 161L100 177L219 318V411C219 424 226 436 238 443S263 450 274 443C316 419 341 357 341 314V253H451C485 253 512 226 512 192V191L488 -4C487 -37 460 -64 427 -64zM122 -63H0V230H122V-63zM24 -38H98V206H24V-38z" />
    <glyph glyph-name="icon-front-arrow-no-stem"
      unicode="&#x2C;"
      horiz-adv-x="266" d=" M16 449C20 449 24 447 27 444L261 204C267 198 267 188 261 182L27 -58C21 -65 11 -65 5 -59S-1 -43 5 -37L229 193L5 423C-1 429 -1 439 5 445C8 447 12 449 16 449z" />
    <glyph glyph-name="icon-get-widget-27"
      unicode="&#x2E;"
      horiz-adv-x="503" d=" M194 238C190 244 182 244 177 240L99 178C96 175 94 172 94 168C94 165 96 161 99 159L176 97C178 96 181 95 183 95C187 95 190 96 193 99C197 104 196 112 191 116L125 168L192 222C197 226 198 233 194 238zM329 241C324 244 316 243 312 238S309 225 315 221L385 169L314 116C308 112 307 105 311 100C313 96 317 95 321 95C323 95 326 96 328 97L413 160C416 162 417 166 417 169C417 173 416 177 413 179L329 241zM299 298C293 300 286 297 284 290L198 29C196 23 200 16 206 14C207 14 209 13 210 13C215 13 219 17 221 22L307 283C309 289 305 296 299 298zM470 438H34C16 438 0 423 0 405V-31C0 -49 16 -64 34 -64H470C488 -64 503 -49 503 -31V405C504 423 488 438 470 438zM34 415H470C475 415 480 410 480 405V369H24V405C24 410 29 415 34 415zM470 -41H34C29 -41 24 -36 24 -31V345H480V-31C480 -36 475 -41 470 -41z" />
    <glyph glyph-name="icon-globe"
      unicode="&#x67;"
      horiz-adv-x="512" d=" M447 362C446 364 445 365 443 366C413 399 374 424 330 437H329C306 444 281 448 256 448C115 448 0 333 0 192S115 -64 256 -64S512 51 512 192C512 257 487 317 447 362zM417 349C413 336 402 306 379 292C343 298 306 280 296 268C289 259 292 251 293 249C295 245 299 242 303 240C306 235 311 221 315 209C315 206 317 204 319 202C328 193 340 192 350 194C346 183 330 166 323 158C311 145 304 138 304 129C304 118 311 111 316 107H317C305 95 293 91 293 91C287 89 283 83 283 77C283 68 283 41 239 40C232 47 220 70 219 77C219 78 222 83 223 86C226 92 230 99 230 108C230 121 218 136 209 146C208 159 204 169 196 177C183 189 164 188 146 187H131C115 187 115 212 115 213S115 274 155 282C178 286 187 284 189 283C190 280 191 278 193 275C214 255 245 262 268 267C275 269 283 271 288 271C296 271 302 276 303 284C309 326 306 352 293 361C287 366 279 366 271 362C264 359 259 359 256 361C252 363 251 368 251 371C250 379 285 397 326 406C360 395 392 375 417 349zM256 -33C132 -33 31 68 31 192S132 417 256 417H261C237 406 218 390 220 368C221 353 228 340 240 334C250 328 262 328 274 331C275 324 275 312 273 300C269 299 265 298 260 297C245 293 227 289 217 295C215 298 213 302 209 306C197 315 177 317 148 312C84 299 84 217 84 213C84 193 93 156 130 156H147C158 157 171 158 175 154C177 152 178 147 178 140C178 136 179 132 183 129C190 121 198 111 199 109C199 107 197 103 195 100C192 94 188 86 188 77C188 65 210 10 235 10C280 10 308 31 313 67C320 71 330 77 340 87C347 94 350 101 350 108C349 119 343 125 337 130C340 132 342 135 344 137C364 157 400 195 371 224C367 229 360 230 354 227C350 225 345 224 342 224C338 238 334 248 330 255C342 260 360 266 378 261C381 260 385 261 388 262C415 276 431 302 440 322C466 285 481 240 481 192C481 68 380 -33 256 -33z" />
    <glyph glyph-name="icon-go-out-for-a-meal"
      unicode="&#x44;"
      horiz-adv-x="362" d=" M148 448C139 448 132 441 132 433V316C132 294 117 274 97 268V433C97 441 90 448 82 448C73 448 66 441 66 433V268C45 275 30 294 30 316V433C30 441 23 448 15 448S0 441 0 433V316C0 276 28 243 66 236V-49C66 -57 73 -64 81 -64C90 -64 97 -57 97 -49V236C134 243 163 277 163 316V433C163 441 156 448 148 448zM280 448C235 448 199 411 199 366V317C199 277 227 244 265 237V-49C265 -57 272 -64 280 -64C289 -64 296 -57 296 -49V236C333 243 362 277 362 316V366C362 411 326 448 280 448zM332 316C332 288 309 265 281 265S230 288 230 316V366C230 394 253 417 281 417S332 394 332 366V316z" />
    <glyph glyph-name="icon-google-plus-semantic"
      unicode="&#xF0D5;"
      horiz-adv-x="487" d=" M216.308 203.077C216.308 195.692 219.59 188.462 226.154 181.385S240.667 167.333 250 160.462C259.3330000000001 153.59 268.615 146.052 277.846 137.846C287.076 129.641 294.974 118.974 301.538 105.846C308.103 92.718 311.385 78.154 311.385 62.154C311.385 43.692 306.462 25.949 296.615 8.924C281.846 -16.103 260.2050000000001 -34.513 231.692 -46.308C203.18 -58.103 172.615 -64 140 -64C112.923 -64 87.641 -59.744 64.154 -51.23C40.667 -42.718 23.077 -28.615 11.384 -8.923C3.795 3.385 0 16.82 0 31.385C0 48 4.564 63.385 13.692 77.538C22.821 91.692 34.974 103.488 50.154 112.923C77.026 129.743 118.462 140 174.462 143.693C167.897 152.308 163.026 159.897 159.846 166.462C156.666 173.026 155.076 180.512 155.076 188.923C155.076 196.308 157.231 205.026 161.538 215.077C152.103 214.257 145.128 213.847 140.615 213.847C110.256 213.847 84.667 223.744 63.846 243.538C43.026 263.3330000000001 32.616 288.4100000000001 32.616 318.769C32.616 335.589 36.308 351.897 43.692 367.692C51.077 383.487 61.231 396.923 74.154 408C89.949 421.538 108.667 431.59 130.308 438.154C151.948 444.718 174.256 448 197.23 448H325.8450000000001L283.384 420.923H243.076C258.257 408 269.7440000000001 394.36 277.538 380C285.3330000000001 365.641 289.231 349.23 289.231 330.77C289.231 316 286.718 302.718 281.692 290.923C276.6670000000001 279.1280000000001 270.615 269.5900000000001 263.538 262.308C256.462 255.026 249.333 248.359 242.154 242.308C234.974 236.256 228.872 229.948 223.846 223.385C218.821 216.821 216.308 210.051 216.308 203.077zM171.385 232.615C179.179 232.615 187.179 234.308 195.385 237.692C203.59 241.077 210.359 245.538 215.692 251.077C226.564 262.769 232 279.077 232 300C232 311.897 230.256 324.718 226.77 338.462C223.282 352.205 218.308 365.487 211.846 378.308C205.385 391.128 196.718 401.744 185.846 410.154S162.974 422.769 149.846 422.769C141.231 422.769 132.769 420.769 124.462 416.769C116.154 412.769 109.436 407.385 104.308 400.615C94.667 388.513 89.846 372.103 89.846 351.385C89.846 341.949 90.872 331.949 92.923 321.385S98.205 300.256 102.615 289.692S112.359 269.641 118.615 261.231C124.872 252.821 132.565 245.949 141.692 240.615C150.821 235.282 160.718 232.615 171.385 232.615zM172 -36C183.897 -36 195.333 -34.667 206.308 -32C217.282 -29.333 227.436 -25.333 236.769 -20C246.103 -14.667 253.589 -7.18 259.231 2.462C264.871 12.102 267.692 23.282 267.692 36C267.692 41.128 266.974 46.154 265.538 51.077C264.103 56 262.615 60.307 261.077 64C259.538 67.692 256.769 71.949 252.769 76.77C248.769 81.59 245.744 85.18 243.692 87.538C241.641 89.898 237.692 93.436 231.846 98.154S222.256 105.846 220.616 107.077C218.974 108.307 214.718 111.385 207.846 116.307C200.974 121.231 197.231 123.897 196.616 124.307C193.333 124.7170000000001 188.41 124.923 181.846 124.923C170.974 124.923 160.206 124.205 149.538 122.769C138.872 121.333 127.846 118.769 116.462 115.077C105.077 111.385 95.128 106.667 86.615 100.923C78.103 95.179 71.077 87.538 65.538 78C60 68.462 57.231 57.641 57.231 45.538C57.231 31.179 60.821 18.513 68 7.538C75.18 -3.436 84.564 -11.949 96.154 -18A153.963 153.963 0 0 0 132.769 -31.538C145.59 -34.513 158.667 -36 172 -36zM421.23 233.538H486.77V200.308H421.23V132.923H388.923V200.308H323.693V233.538H388.923V300.308H421.231V233.538z" />
    <glyph glyph-name="icon-happy-hours"
      unicode="&#x48;"
      horiz-adv-x="513" d=" M239 413L62 445C56 446 50 443 48 437L4 312C3 311 3 310 3 310C-9 246 29 186 90 169L66 37L31 44C24 45 17 40 16 34C15 27 19 20 26 19L121 1H124C130 1 135 6 136 12C137 19 133 25 126 26L91 33L115 165C119 165 122 164 126 164C186 164 235 206 246 266V268L250 401C249 406 245 412 239 413zM68 418L224 390L222 352H45L68 418zM126 190C120 190 113 190 107 192C52 201 19 250 28 304L36 327H222L220 269C212 222 173 190 126 190zM483 -21L448 -27L424 104C485 122 522 181 511 245C511 246 510 246 510 247L466 372C464 378 458 382 452 381L275 348C269 347 264 342 265 335L268 202V200C279 141 328 99 388 99C392 99 395 99 399 100L423 -32L388 -39C381 -40 377 -47 378 -54C379 -60 385 -64 391 -64H393L488 -46C495 -45 500 -39 498 -32C497 -24 490 -20 483 -21zM446 354L469 288H291L290 325L446 354zM293 204L292 262H477L485 239C495 185 461 136 407 127C400 125 394 125 388 125C341 125 302 157 293 204z" />
    <glyph glyph-name="icon-heart"
      unicode="&#xF004;"
      horiz-adv-x="512" d=" M256 -63.857C251.048 -63.857 246.857 -62.143 243.429 -58.714L65.143 113.286C63.238 114.81 60.619 117.286 57.286 120.714C53.952 124.143 48.666 130.381 41.429 139.429C34.19 148.476 27.714 157.762 22 167.286C16.286 176.81 11.19 188.333 6.714 201.857C2.238 215.381 0 228.524 0 241.286C0 283.19 12.095 315.952 36.286 339.57C60.476 363.191 93.905 375 136.57 375C148.38 375 160.428 372.952 172.713 368.8570000000001C185 364.762 196.43 359.238 207 352.286C217.571 345.3330000000001 226.667 338.81 234.286 332.714A263.246 263.246 0 0 1 256 313.286A263.246 263.246 0 0 1 277.714 332.714C285.334 338.81 294.429 345.334 305 352.286C315.5710000000001 359.238 327 364.762 339.286 368.857C351.57 372.952 363.6190000000001 375 375.429 375C418.095 375 451.524 363.19 475.7139999999999 339.5710000000001C499.904 315.952 512 283.1910000000001 512 241.286C512 199.19 490.19 156.333 446.5710000000001 112.714L268.5710000000001 -58.714C265.1430000000001 -62.143 260.952 -63.857 256 -63.857z" />
    <glyph glyph-name="icon-home"
      unicode="&#xE02B;"
      horiz-adv-x="512" d=" M256 448C115 448 0 333 0 192S115 -64 256 -64S512 51 512 192S397 448 256 448zM379 178V32H298V122H228V32H147V178H85L263 352L441 178H379z" />
    <glyph glyph-name="icon-hookah"
      unicode="&#x5F;"
      horiz-adv-x="483" d=" M439 110C425 124 408 134 390 142L372 322H418C425 322 431 326 434 332L441 347C444 352 440 357 435 357H368C408 367 436 396 436 430C436 440 429 448 419 448H253C244 448 236 440 236 430C236 396 265 367 304 357H235C230 357 227 351 229 347L237 332C239 326 245 322 252 322H298L288 226C260 253 215 262 170 232C155 222 145 206 142 188C138 164 120 144 96 141C63 137 35 163 35 195C35 205 27 212 17 212C8 212 0 205 0 195C0 146 40 106 89 106C130 106 165 133 175 172L176 175C182 199 203 216 228 216C258 216 282 191 282 162C282 161 282 160 283 159L281 142C262 134 245 124 231 109C192 71 178 14 194 -38C197 -48 202 -64 316 -64H339C469 -62 474 -44 477 -34C491 17 477 72 439 110zM277 413H395C385 398 362 388 336 388S287 398 277 413zM445 -19C414 -30 259 -33 226 -23C217 16 228 57 256 85C268 97 282 106 298 111C310 115 317 127 315 140L333 322H337L355 140C353 127 361 116 372 112C388 106 403 97 415 85C442 58 453 18 445 -19z" />
    <glyph glyph-name="icon-info"
      unicode="&#x7C;"
      horiz-adv-x="512" d=" M256 448C115 448 0 333 0 192S115 -64 256 -64S512 51 512 192S397 448 256 448zM256 -33C132 -33 31 68 31 192S132 417 256 417S481 316 481 192S380 -33 256 -33zM289 311C289 293 274 278 256 278S223 293 223 311S238 344 256 344S289 329 289 311zM256 234C242 234 231 222 231 209V43C231 29 242 18 256 18S281 29 281 43V209C281 222 270 234 256 234z" />
    <glyph glyph-name="icon-information"
      unicode="&#xE034;"
      horiz-adv-x="512" d=" M511 223C505 182 481 159 453 153V-64H71V151C39 153 7 176 1 223C1 228 0 233 0 240V244L102 448H410L512 244V240C512 233 511 228 511 223zM417 -28V153C400 156 386 165 375 178C361 161 340 151 315 151H309C305 151 301 152 297 152C295 153 293 153 291 154S286 156 283 157L277 160C274 162 271 164 269 166C267 166 266 167 265 168L256 177V178C256 177 255 177 255 177L246 168L243 165C240 163 237 162 234 160L228 157C226 156 223 155 220 154C218 153 216 153 214 152C210 151 207 151 203 151C202 151 201 150 200 150V151C199 151 198 150 196 150C172 150 151 161 136 178C129 168 118 161 107 156V-28H417zM388 412H124L36 236C36 230 37 226 38 222H37C42 199 56 186 77 186C100 186 119 205 119 228H155C155 205 173 186 196 186C205 186 213 189 220 193C221 194 223 195 224 197C225 197 226 198 226 198C227 199 227 200 228 200C232 206 236 212 237 219C237 222 238 225 238 228H273C273 225 274 222 274 219C276 212 279 206 283 200C284 200 284 199 285 198C286 198 286 197 287 197L291 193C298 189 306 186 315 186C338 186 356 205 356 228H392C392 205 410 186 434 186C455 186 469 199 474 222H473C474 226 475 230 475 236L388 412z" />
    <glyph glyph-name="icon-instagram"
      unicode="&#x34;"
      horiz-adv-x="512" d=" M66 448H446C482 448 512 418 512 382V2C512 -34 482 -64 446 -64H66C30 -64 0 -34 0 2V382C0 418 30 448 66 448zM373 391C360 391 350 381 350 368V313C350 300 360 290 373 290H431C443 290 454 300 454 313V368C454 381 443 391 431 391H373zM454 231H409C413 218 416 203 416 188C416 102 344 33 256 33C169 33 97 102 97 188C97 203 100 218 104 231H57V15C57 4 66 -5 77 -5H434C445 -5 454 4 454 15V231zM256 293C200 293 154 248 154 193S200 93 256 93C313 93 359 138 359 193S313 293 256 293z" />
    </font>
</defs>
</svg>
